font.ufo
<glyph name="ampersand" format="2">
  <advance width="672"/>
  <unicode hex="0026"/>
  <outline>
    <contour>
      <point x="541" y="0" type="line"/>
      <point x="625" y="0" type="line"/>
      <point x="275" y="371" type="line" smooth="yes"/>
      <point x="211" y="438"/>
      <point x="183" y="483"/>
      <point x="183" y="548" type="curve" smooth="yes"/>
      <point x="183" y="630"/>
      <point x="225" y="674"/>
      <point x="330" y="674" type="curve" smooth="yes"/>
      <point x="375" y="674"/>
      <point x="448" y="670"/>
      <point x="495" y="664" type="curve"/>
      <point x="495" y="726" type="line"/>
      <point x="447" y="732"/>
      <point x="390" y="736"/>
      <point x="344" y="736" type="curve" smooth="yes"/>
      <point x="184" y="736"/>
      <point x="116" y="671"/>
      <point x="116" y="549" type="curve" smooth="yes"/>
      <point x="116" y="473"/>
      <point x="145" y="422"/>
      <point x="232" y="329" type="curve" smooth="yes"/>
    </contour>
    <contour>
      <point x="283" y="-17" type="curve" smooth="yes"/>
      <point x="479" y="-17"/>
      <point x="580" y="150"/>
      <point x="580" y="413" type="curve"/>
      <point x="517" y="413" type="line"/>
      <point x="517" y="177"/>
      <point x="435" y="44"/>
      <point x="283" y="44" type="curve" smooth="yes"/>
      <point x="188" y="44"/>
      <point x="105" y="99"/>
      <point x="105" y="202" type="curve" smooth="yes"/>
      <point x="105" y="276"/>
      <point x="147" y="340"/>
      <point x="213" y="373" type="curve"/>
      <point x="177" y="424" type="line"/>
      <point x="98" y="380"/>
      <point x="37" y="303"/>
      <point x="37" y="208" type="curve" smooth="yes"/>
      <point x="37" y="196" type="line" smooth="yes"/>
      <point x="37" y="72"/>
      <point x="142" y="-17"/>
    </contour>
    <contour>
      <point x="391" y="402" type="line"/>
      <point x="643" y="402" type="line"/>
      <point x="643" y="459" type="line"/>
      <point x="391" y="459" type="line"/>
    </contour>
  </outline>
</glyph>
<glyph name="plus" format="2">
  <advance width="588"/>
  <unicode hex="002B"/>
  <outline>
    <contour>
      <point x="263" y="112" type="line"/>
      <point x="325" y="112" type="line"/>
      <point x="325" y="577" type="line"/>
      <point x="263" y="577" type="line"/>
    </contour>
    <contour>
      <point x="74" y="316" type="line"/>
      <point x="513" y="316" type="line"/>
      <point x="513" y="373" type="line"/>
      <point x="74" y="373" type="line"/>
    </contour>
  </outline>
</glyph>
<glyph name="hyphen" format="2">
  <advance width="501"/>
  <unicode hex="002D"/>
  <outline>
    <contour>
      <point x="77" y="248" type="line"/>
      <point x="423" y="248" type="line"/>
      <point x="423" y="308" type="line"/>
      <point x="77" y="308" type="line"/>
    </contour>
  </outline>
</glyph>
<glyph name="zero" format="2">
  <advance width="733"/>
  <unicode hex="0030"/>
  <outline>
    <contour>
      <point x="367" y="-17" type="curve" smooth="yes"/>
      <point x="568" y="-17"/>
      <point x="654" y="136"/>
      <point x="654" y="342" type="curve" smooth="yes"/>
      <point x="654" y="388" type="line" smooth="yes"/>
      <point x="654" y="602"/>
      <point x="561" y="749"/>
      <point x="367" y="749" type="curve" smooth="yes"/>
      <point x="172" y="749"/>
      <point x="79" y="602"/>
      <point x="79" y="388" type="curve" smooth="yes"/>
      <point x="79" y="342" type="line" smooth="yes"/>
      <point x="79" y="136"/>
      <point x="165" y="-17"/>
    </contour>
    <contour>
      <point x="367" y="47" type="curve" smooth="yes"/>
      <point x="220" y="47"/>
      <point x="151" y="147"/>
      <point x="151" y="366" type="curve" smooth="yes"/>
      <point x="151" y="589"/>
      <point x="223" y="685"/>
      <point x="367" y="685" type="curve" smooth="yes"/>
      <point x="510" y="685"/>
      <point x="582" y="589"/>
      <point x="582" y="364" type="curve" smooth="yes"/>
      <point x="582" y="147"/>
      <point x="512" y="47"/>
    </contour>
  </outline>
</glyph>
<glyph name="one" format="2">
  <advance width="415"/>
  <unicode hex="0031"/>
  <outline>
    <contour>
      <point x="214" y="0" type="line"/>
      <point x="284" y="0" type="line"/>
      <point x="284" y="730" type="line"/>
      <point x="47" y="730" type="line"/>
      <point x="47" y="669" type="line"/>
      <point x="244" y="669" type="line"/>
      <point x="214" y="693" type="line"/>
    </contour>
  </outline>
</glyph>
<glyph name="two" format="2">
  <advance width="613"/>
  <unicode hex="0032"/>
  <outline>
    <contour>
      <point x="83" y="0" type="line"/>
      <point x="558" y="0" type="line"/>
      <point x="558" y="61" type="line"/>
      <point x="132" y="61" type="line"/>
      <point x="153" y="27" type="line"/>
      <point x="153" y="116" type="line" smooth="yes"/>
      <point x="153" y="168"/>
      <point x="170" y="196"/>
      <point x="240" y="229" type="curve" smooth="yes"/>
      <point x="385" y="297" type="line" smooth="yes"/>
      <point x="480" y="341"/>
      <point x="545" y="408"/>
      <point x="545" y="513" type="curve" smooth="yes"/>
      <point x="545" y="526" type="line" smooth="yes"/>
      <point x="545" y="649"/>
      <point x="464" y="749"/>
      <point x="311" y="749" type="curve" smooth="yes"/>
      <point x="158" y="749"/>
      <point x="75" y="649"/>
      <point x="75" y="519" type="curve"/>
      <point x="144" y="519" type="line"/>
      <point x="144" y="624"/>
      <point x="210" y="687"/>
      <point x="311" y="687" type="curve" smooth="yes"/>
      <point x="413" y="687"/>
      <point x="477" y="624"/>
      <point x="477" y="519" type="curve" smooth="yes"/>
      <point x="477" y="435"/>
      <point x="430" y="384"/>
      <point x="362" y="352" type="curve" smooth="yes"/>
      <point x="217" y="284" type="line" smooth="yes"/>
      <point x="113" y="236"/>
      <point x="83" y="192"/>
      <point x="83" y="109" type="curve" smooth="yes"/>
    </contour>
  </outline>
</glyph>
<glyph name="three" format="2">
  <advance width="608"/>
  <unicode hex="0033"/>
  <outline>
    <contour>
      <point x="296" y="-17" type="curve" smooth="yes"/>
      <point x="454" y="-17"/>
      <point x="543" y="88"/>
      <point x="543" y="205" type="curve" smooth="yes"/>
      <point x="543" y="218" type="line" smooth="yes"/>
      <point x="543" y="338"/>
      <point x="454" y="438"/>
      <point x="300" y="438" type="curve" smooth="yes"/>
      <point x="260" y="438"/>
      <point x="229" y="430"/>
      <point x="205" y="418" type="curve"/>
      <point x="250" y="419" type="line"/>
      <point x="514" y="627" type="line"/>
      <point x="514" y="730" type="line"/>
      <point x="77" y="730" type="line"/>
      <point x="77" y="669" type="line"/>
      <point x="447" y="669" type="line"/>
      <point x="455" y="654" type="line"/>
      <point x="162" y="423" type="line"/>
      <point x="201" y="355" type="line"/>
      <point x="224" y="371"/>
      <point x="255" y="382"/>
      <point x="298" y="382" type="curve" smooth="yes"/>
      <point x="406" y="382"/>
      <point x="475" y="314"/>
      <point x="475" y="212" type="curve" smooth="yes"/>
      <point x="475" y="111"/>
      <point x="405" y="45"/>
      <point x="296" y="45" type="curve" smooth="yes"/>
      <point x="185" y="45"/>
      <point x="118" y="111"/>
      <point x="118" y="214" type="curve"/>
      <point x="49" y="214" type="line"/>
      <point x="49" y="87"/>
      <point x="138" y="-17"/>
    </contour>
  </outline>
</glyph>
<glyph name="four" format="2">
  <advance width="629"/>
  <unicode hex="0034"/>
  <outline>
    <contour>
      <point x="52" y="184" type="line"/>
      <point x="600" y="184" type="line"/>
      <point x="600" y="240" type="line"/>
      <point x="123" y="240" type="line"/>
      <point x="115" y="255" type="line"/>
      <point x="412" y="704" type="line"/>
      <point x="364" y="743" type="line"/>
      <point x="52" y="273" type="line"/>
    </contour>
    <contour>
      <point x="433" y="0" type="line"/>
      <point x="500" y="0" type="line"/>
      <point x="500" y="513" type="line"/>
      <point x="433" y="513" type="line"/>
    </contour>
  </outline>
</glyph>
<glyph name="six" format="2">
  <advance width="653"/>
  <unicode hex="0036"/>
  <outline>
    <contour>
      <point x="345" y="-18" type="curve" smooth="yes"/>
      <point x="510" y="-18"/>
      <point x="596" y="91"/>
      <point x="596" y="228" type="curve" smooth="yes"/>
      <point x="596" y="364"/>
      <point x="511" y="470"/>
      <point x="355" y="470" type="curve" smooth="yes"/>
      <point x="213" y="470"/>
      <point x="125" y="380"/>
      <point x="123" y="231" type="curve"/>
      <point x="142" y="284" type="line"/>
      <point x="142" y="361" type="line" smooth="yes"/>
      <point x="142" y="560"/>
      <point x="215" y="674"/>
      <point x="404" y="674" type="curve" smooth="yes"/>
      <point x="448" y="674"/>
      <point x="484" y="671"/>
      <point x="526" y="666" type="curve"/>
      <point x="526" y="727" type="line"/>
      <point x="485" y="732"/>
      <point x="452" y="735"/>
      <point x="408" y="735" type="curve" smooth="yes"/>
      <point x="188" y="735"/>
      <point x="79" y="604"/>
      <point x="79" y="366" type="curve" smooth="yes"/>
      <point x="79" y="325" type="line" smooth="yes"/>
      <point x="79" y="121"/>
      <point x="153" y="-18"/>
    </contour>
    <contour>
      <point x="345" y="44" type="curve" smooth="yes"/>
      <point x="217" y="44"/>
      <point x="157" y="132"/>
      <point x="157" y="227" type="curve" smooth="yes"/>
      <point x="157" y="338"/>
      <point x="232" y="410"/>
      <point x="349" y="410" type="curve" smooth="yes"/>
      <point x="468" y="410"/>
      <point x="528" y="332"/>
      <point x="528" y="228" type="curve" smooth="yes"/>
      <point x="528" y="124"/>
      <point x="466" y="44"/>
    </contour>
  </outline>
</glyph>
<glyph name="seven" format="2">
  <advance width="563"/>
  <unicode hex="0037"/>
  <outline>
    <contour>
      <point x="153" y="0" type="line"/>
      <point x="226" y="0" type="line"/>
      <point x="523" y="642" type="line"/>
      <point x="523" y="730" type="line"/>
      <point x="55" y="730" type="line"/>
      <point x="55" y="669" type="line"/>
      <point x="454" y="669" type="line"/>
      <point x="461" y="659" type="line"/>
    </contour>
    <contour>
      <point x="55" y="545" type="line"/>
      <point x="114" y="545" type="line"/>
      <point x="114" y="730" type="line"/>
      <point x="55" y="730" type="line"/>
    </contour>
  </outline>
</glyph>
<glyph name="at" format="2">
  <advance width="1120"/>
  <unicode hex="0040"/>
  <outline>
    <contour>
      <point x="564" y="-240" type="curve" smooth="yes"/>
      <point x="606" y="-240"/>
      <point x="642" y="-236"/>
      <point x="678" y="-228" type="curve"/>
      <point x="678" y="-166" type="line"/>
      <point x="642" y="-175"/>
      <point x="605" y="-179"/>
      <point x="564" y="-179" type="curve" smooth="yes"/>
      <point x="310" y="-179"/>
      <point x="138" y="-7"/>
      <point x="138" y="251" type="curve" smooth="yes"/>
      <point x="138" y="506"/>
      <point x="310" y="690"/>
      <point x="570" y="690" type="curve" smooth="yes"/>
      <point x="800" y="690"/>
      <point x="987" y="556"/>
      <point x="987" y="306" type="curve" smooth="yes"/>
      <point x="987" y="160"/>
      <point x="925" y="69"/>
      <point x="849" y="69" type="curve" smooth="yes"/>
      <point x="807" y="69"/>
      <point x="766" y="94"/>
      <point x="766" y="169" type="curve" smooth="yes"/>
      <point x="766" y="473" type="line"/>
      <point x="709" y="473" type="line"/>
      <point x="709" y="282" type="line"/>
      <point x="737" y="282" type="line"/>
      <point x="730" y="411"/>
      <point x="644" y="484"/>
      <point x="535" y="484" type="curve" smooth="yes"/>
      <point x="413" y="484"/>
      <point x="322" y="391"/>
      <point x="322" y="260" type="curve" smooth="yes"/>
      <point x="322" y="247" type="line" smooth="yes"/>
      <point x="322" y="116"/>
      <point x="411" y="17"/>
      <point x="533" y="17" type="curve" smooth="yes"/>
      <point x="637" y="17"/>
      <point x="725" y="85"/>
      <point x="732" y="229" type="curve"/>
      <point x="708" y="229" type="line"/>
      <point x="708" y="168" type="line" smooth="yes"/>
      <point x="708" y="64"/>
      <point x="769" y="11"/>
      <point x="850" y="11" type="curve" smooth="yes"/>
      <point x="967" y="11"/>
      <point x="1051" y="132"/>
      <point x="1051" y="308" type="curve" smooth="yes"/>
      <point x="1051" y="590"/>
      <point x="835" y="749"/>
      <point x="569" y="749" type="curve" smooth="yes"/>
      <point x="275" y="749"/>
      <point x="74" y="539"/>
      <point x="74" y="252" type="curve" smooth="yes"/>
      <point x="74" y="-42"/>
      <point x="276" y="-240"/>
    </contour>
    <contour>
      <point x="543" y="75" type="curve" smooth="yes"/>
      <point x="452" y="75"/>
      <point x="387" y="146"/>
      <point x="387" y="253" type="curve" smooth="yes"/>
      <point x="387" y="360"/>
      <point x="451" y="426"/>
      <point x="543" y="426" type="curve" smooth="yes"/>
      <point x="626" y="426"/>
      <point x="703" y="373"/>
      <point x="703" y="267" type="curve" smooth="yes"/>
      <point x="703" y="247" type="line" smooth="yes"/>
      <point x="703" y="134"/>
      <point x="629" y="75"/>
    </contour>
  </outline>
</glyph>
<glyph name="B" format="2">
  <advance width="672"/>
  <unicode hex="0042"/>
  <outline>
    <contour>
      <point x="169" y="-3" type="line"/>
      <point x="374" y="-3" type="line" smooth="yes"/>
      <point x="523" y="-3"/>
      <point x="597" y="75"/>
      <point x="597" y="193" type="curve" smooth="yes"/>
      <point x="597" y="204" type="line" smooth="yes"/>
      <point x="597" y="331"/>
      <point x="505" y="387"/>
      <point x="374" y="387" type="curve" smooth="yes"/>
      <point x="169" y="387" type="line"/>
      <point x="169" y="339" type="line"/>
      <point x="384" y="339" type="line" smooth="yes"/>
      <point x="475" y="339"/>
      <point x="525" y="283"/>
      <point x="525" y="200" type="curve" smooth="yes"/>
      <point x="525" y="116"/>
      <point x="473" y="60"/>
      <point x="384" y="60" type="curve" smooth="yes"/>
      <point x="169" y="60" type="line"/>
    </contour>
    <contour>
      <point x="116" y="-3" type="line"/>
      <point x="187" y="-3" type="line"/>
      <point x="187" y="733" type="line"/>
      <point x="116" y="733" type="line"/>
    </contour>
    <contour>
      <point x="169" y="352" type="line"/>
      <point x="345" y="352" type="line" smooth="yes"/>
      <point x="479" y="352"/>
      <point x="567" y="406"/>
      <point x="567" y="531" type="curve" smooth="yes"/>
      <point x="567" y="542" type="line" smooth="yes"/>
      <point x="567" y="661"/>
      <point x="495" y="733"/>
      <point x="345" y="733" type="curve" smooth="yes"/>
      <point x="169" y="733" type="line"/>
      <point x="169" y="670" type="line"/>
      <point x="357" y="670" type="line" smooth="yes"/>
      <point x="451" y="670"/>
      <point x="495" y="614"/>
      <point x="495" y="535" type="curve" smooth="yes"/>
      <point x="495" y="456"/>
      <point x="451" y="400"/>
      <point x="357" y="400" type="curve" smooth="yes"/>
      <point x="169" y="400" type="line"/>
    </contour>
  </outline>
</glyph>
<glyph name="G" format="2">
  <advance width="831"/>
  <unicode hex="0047"/>
  <anchor x="432" y="0" name="bottom"/>
  <anchor x="416" y="730" name="top"/>
  <outline>
    <contour>
      <point x="433" y="-17" type="curve" smooth="yes"/>
      <point x="564" y="-17"/>
      <point x="665" y="32"/>
      <point x="726" y="112" type="curve"/>
      <point x="726" y="296" type="line"/>
      <point x="659" y="296" type="line"/>
      <point x="659" y="80" type="line"/>
      <point x="687" y="169" type="line"/>
      <point x="639" y="95"/>
      <point x="548" y="47"/>
      <point x="433" y="47" type="curve" smooth="yes"/>
      <point x="241" y="47"/>
      <point x="134" y="180"/>
      <point x="134" y="369" type="curve" smooth="yes"/>
      <point x="134" y="548"/>
      <point x="242" y="684"/>
      <point x="417" y="684" type="curve" smooth="yes"/>
      <point x="542" y="684"/>
      <point x="647" y="614"/>
      <point x="663" y="484" type="curve"/>
      <point x="735" y="484" type="line"/>
      <point x="718" y="642"/>
      <point x="594" y="749"/>
      <point x="417" y="749" type="curve" smooth="yes"/>
      <point x="188" y="749"/>
      <point x="62" y="565"/>
      <point x="62" y="379" type="curve" smooth="yes"/>
      <point x="62" y="361" type="line" smooth="yes"/>
      <point x="62" y="161"/>
      <point x="191" y="-17"/>
    </contour>
    <contour>
      <point x="406" y="280" type="line"/>
      <point x="792" y="280" type="line"/>
      <point x="792" y="340" type="line"/>
      <point x="406" y="340" type="line"/>
    </contour>
  </outline>
</glyph>
<glyph name="H" format="2">
  <advance width="806"/>
  <unicode hex="0048"/>
  <anchor x="403" y="0" name="bottom"/>
  <anchor x="403" y="606" name="center"/>
  <anchor x="403" y="730" name="top"/>
  <outline>
    <contour>
      <point x="620" y="0" type="line"/>
      <point x="691" y="0" type="line"/>
      <point x="691" y="730" type="line"/>
      <point x="620" y="730" type="line"/>
    </contour>
    <contour>
      <point x="116" y="0" type="line"/>
      <point x="187" y="0" type="line"/>
      <point x="187" y="730" type="line"/>
      <point x="116" y="730" type="line"/>
    </contour>
    <contour>
      <point x="170" y="330" type="line"/>
      <point x="636" y="330" type="line"/>
      <point x="636" y="394" type="line"/>
      <point x="170" y="394" type="line"/>
    </contour>
  </outline>
</glyph>
<glyph name="J" format="2">
  <advance width="638"/>
  <unicode hex="004A"/>
  <anchor x="306" y="0" name="bottom"/>
  <anchor x="337" y="730" name="top"/>
  <outline>
    <contour>
      <point x="288" y="-17" type="curve" smooth="yes"/>
      <point x="434" y="-17"/>
      <point x="534" y="74"/>
      <point x="534" y="237" type="curve" smooth="yes"/>
      <point x="534" y="685" type="line"/>
      <point x="463" y="685" type="line"/>
      <point x="463" y="225" type="line" smooth="yes"/>
      <point x="463" y="114"/>
      <point x="395" y="48"/>
      <point x="288" y="48" type="curve" smooth="yes"/>
      <point x="180" y="48"/>
      <point x="112" y="114"/>
      <point x="112" y="225" type="curve" smooth="yes"/>
      <point x="112" y="263" type="line"/>
      <point x="41" y="263" type="line"/>
      <point x="41" y="237" type="line" smooth="yes"/>
      <point x="41" y="74"/>
      <point x="142" y="-17"/>
    </contour>
    <contour>
      <point x="138" y="666" type="line"/>
      <point x="534" y="666" type="line"/>
      <point x="534" y="730" type="line"/>
      <point x="138" y="730" type="line"/>
    </contour>
  </outline>
</glyph>
<glyph name="K" format="2">
  <advance width="653"/>
  <unicode hex="004B"/>
  <anchor x="370" y="0" name="bottom"/>
  <anchor x="340" y="730" name="top"/>
  <outline>
    <contour>
      <point x="574" y="0" type="line"/>
      <point x="664" y="0" type="line"/>
      <point x="264" y="429" type="line"/>
      <point x="269" y="376" type="line"/>
      <point x="587" y="730" type="line"/>
      <point x="505" y="730" type="line"/>
      <point x="160" y="345" type="line"/>
      <point x="252" y="345" type="line"/>
    </contour>
    <contour>
      <point x="116" y="0" type="line"/>
      <point x="187" y="0" type="line"/>
      <point x="187" y="730" type="line"/>
      <point x="116" y="730" type="line"/>
    </contour>
  </outline>
</glyph>
<glyph name="Q" format="2">
  <advance width="868"/>
  <unicode hex="0051"/>
  <anchor x="435" y="0" name="bottom"/>
  <anchor x="435" y="365" name="center"/>
  <anchor x="565" y="10" name="ogonek"/>
  <anchor x="435" y="730" name="top"/>
  <outline>
    <contour>
      <point x="568" y="-208" type="curve" smooth="yes"/>
      <point x="682" y="-208" type="line"/>
      <point x="682" y="-144" type="line"/>
      <point x="557" y="-144" type="line" smooth="yes"/>
      <point x="502" y="-144"/>
      <point x="471" y="-114"/>
      <point x="471" y="-58" type="curve" smooth="yes"/>
      <point x="471" y="31" type="line"/>
      <point x="404" y="31" type="line"/>
      <point x="404" y="-48" type="line" smooth="yes"/>
      <point x="404" y="-165"/>
      <point x="466" y="-208"/>
    </contour>
    <component base="O"/>
  </outline>
</glyph>
<glyph name="R" format="2">
  <advance width="685"/>
  <unicode hex="0052"/>
  <anchor x="369" y="0" name="bottom"/>
  <anchor x="330" y="730" name="top"/>
  <outline>
    <contour>
      <point x="116" y="0" type="line"/>
      <point x="187" y="0" type="line"/>
      <point x="187" y="733" type="line"/>
      <point x="116" y="733" type="line"/>
    </contour>
    <contour>
      <point x="570" y="0" type="line"/>
      <point x="657" y="0" type="line"/>
      <point x="402" y="322" type="line"/>
      <point x="318" y="322" type="line"/>
    </contour>
    <contour>
      <point x="157" y="279" type="line"/>
      <point x="342" y="279" type="line" smooth="yes"/>
      <point x="502" y="279"/>
      <point x="591" y="360"/>
      <point x="591" y="500" type="curve" smooth="yes"/>
      <point x="591" y="513" type="line" smooth="yes"/>
      <point x="591" y="652"/>
      <point x="502" y="733"/>
      <point x="342" y="733" type="curve" smooth="yes"/>
      <point x="157" y="733" type="line"/>
      <point x="157" y="670" type="line"/>
      <point x="353" y="670" type="line" smooth="yes"/>
      <point x="465" y="670"/>
      <point x="519" y="599"/>
      <point x="519" y="506" type="curve" smooth="yes"/>
      <point x="519" y="414"/>
      <point x="465" y="343"/>
      <point x="353" y="343" type="curve" smooth="yes"/>
      <point x="157" y="343" type="line"/>
    </contour>
  </outline>
</glyph>
<glyph name="U" format="2">
  <advance width="796"/>
  <unicode hex="0055"/>
  <anchor x="398" y="0" name="bottom"/>
  <anchor x="511" y="8" name="ogonek"/>
  <anchor x="398" y="730" name="top"/>
  <outline>
    <contour>
      <point x="398" y="-17" type="curve" smooth="yes"/>
      <point x="598" y="-17"/>
      <point x="694" y="107"/>
      <point x="694" y="284" type="curve" smooth="yes"/>
      <point x="694" y="730" type="line"/>
      <point x="623" y="730" type="line"/>
      <point x="623" y="275" type="line" smooth="yes"/>
      <point x="623" y="139"/>
      <point x="548" y="48"/>
      <point x="398" y="48" type="curve" smooth="yes"/>
      <point x="248" y="48"/>
      <point x="173" y="140"/>
      <point x="173" y="275" type="curve" smooth="yes"/>
      <point x="173" y="730" type="line"/>
      <point x="102" y="730" type="line"/>
      <point x="102" y="284" type="line" smooth="yes"/>
      <point x="102" y="107"/>
      <point x="198" y="-17"/>
    </contour>
  </outline>
</glyph>
<glyph name="V" format="2">
  <advance width="697"/>
  <unicode hex="0056"/>
  <outline>
    <contour>
      <point x="287" y="0" type="line"/>
      <point x="418" y="0" type="line"/>
      <point x="664" y="730" type="line"/>
      <point x="593" y="730" type="line"/>
      <point x="364" y="44" type="line"/>
      <point x="406" y="64" type="line"/>
      <point x="303" y="64" type="line"/>
      <point x="342" y="44" type="line"/>
      <point x="98" y="730" type="line"/>
      <point x="24" y="730" type="line"/>
    </contour>
  </outline>
</glyph>
<glyph name="W" format="2">
  <advance width="1030"/>
  <unicode hex="0057"/>
  <anchor x="523" y="0" name="bottom"/>
  <anchor x="516" y="730" name="top"/>
  <outline>
    <contour>
      <point x="237" y="0" type="line"/>
      <point x="370" y="0" type="line"/>
      <point x="536" y="698" type="line"/>
      <point x="469" y="698" type="line"/>
      <point x="317" y="46" type="line"/>
      <point x="352" y="64" type="line"/>
      <point x="259" y="64" type="line"/>
      <point x="292" y="46" type="line"/>
      <point x="107" y="730" type="line"/>
      <point x="34" y="730" type="line"/>
    </contour>
    <contour>
      <point x="676" y="0" type="line"/>
      <point x="810" y="0" type="line"/>
      <point x="996" y="730" type="line"/>
      <point x="925" y="730" type="line"/>
      <point x="757" y="46" type="line"/>
      <point x="792" y="64" type="line"/>
      <point x="697" y="64" type="line"/>
      <point x="732" y="46" type="line"/>
      <point x="564" y="698" type="line"/>
      <point x="495" y="698" type="line"/>
    </contour>
  </outline>
</glyph>
<glyph name="bracketleft" format="2">
  <advance width="368"/>
  <unicode hex="005B"/>
  <outline>
    <contour>
      <point x="121" y="-182" type="line"/>
      <point x="188" y="-182" type="line"/>
      <point x="188" y="776" type="line"/>
      <point x="121" y="776" type="line"/>
    </contour>
    <contour>
      <point x="147" y="-182" type="line"/>
      <point x="307" y="-182" type="line"/>
      <point x="307" y="-125" type="line"/>
      <point x="147" y="-125" type="line"/>
    </contour>
    <contour>
      <point x="147" y="720" type="line"/>
      <point x="307" y="720" type="line"/>
      <point x="307" y="776" type="line"/>
      <point x="147" y="776" type="line"/>
    </contour>
  </outline>
</glyph>
<glyph name="backslash" format="2">
  <advance width="319"/>
  <unicode hex="005C"/>
  <outline>
    <contour>
      <point x="237" y="-60" type="line"/>
      <point x="302" y="-60" type="line"/>
      <point x="82" y="780" type="line"/>
      <point x="17" y="780" type="line"/>
    </contour>
  </outline>
</glyph>
<glyph name="d" format="2">
  <advance width="683"/>
  <unicode hex="0064"/>
  <anchor x="354" y="0" name="bottom"/>
  <anchor x="489" y="641" name="center"/>
  <anchor x="549" y="730" name="top"/>
  <anchor x="585" y="534" name="topright"/>
  <outline>
    <contour>
      <point x="314" y="-17" type="curve" smooth="yes"/>
      <point x="445" y="-17"/>
      <point x="547" y="71"/>
      <point x="552" y="235" type="curve"/>
      <point x="529" y="235" type="line"/>
      <point x="529" y="0" type="line"/>
      <point x="584" y="0" type="line"/>
      <point x="584" y="730" type="line"/>
      <point x="514" y="730" type="line"/>
      <point x="514" y="361" type="line"/>
      <point x="546" y="300" type="line"/>
      <point x="541" y="453"/>
      <point x="446" y="546"/>
      <point x="312" y="546" type="curve" smooth="yes"/>
      <point x="154" y="546"/>
      <point x="56" y="414"/>
      <point x="56" y="271" type="curve" smooth="yes"/>
      <point x="56" y="258" type="line" smooth="yes"/>
      <point x="56" y="110"/>
      <point x="159" y="-17"/>
    </contour>
    <contour>
      <point x="323" y="45" type="curve" smooth="yes"/>
      <point x="204" y="45"/>
      <point x="126" y="138"/>
      <point x="126" y="264" type="curve" smooth="yes"/>
      <point x="126" y="386"/>
      <point x="200" y="483"/>
      <point x="322" y="483" type="curve" smooth="yes"/>
      <point x="434" y="483"/>
      <point x="518" y="404"/>
      <point x="518" y="292" type="curve" smooth="yes"/>
      <point x="518" y="243" type="line" smooth="yes"/>
      <point x="518" y="125"/>
      <point x="435" y="45"/>
    </contour>
  </outline>
</glyph>
<glyph name="e" format="2">
  <advance width="608"/>
  <unicode hex="0065"/>
  <anchor x="318" y="0" name="bottom"/>
  <anchor x="473" y="37" name="ogonek"/>
  <anchor x="312" y="528" name="top"/>
  <outline>
    <contour>
      <point x="318" y="-17" type="curve" smooth="yes"/>
      <point x="443" y="-17"/>
      <point x="530" y="50"/>
      <point x="552" y="154" type="curve"/>
      <point x="486" y="154" type="line"/>
      <point x="473" y="94"/>
      <point x="412" y="45"/>
      <point x="318" y="45" type="curve" smooth="yes"/>
      <point x="184" y="45"/>
      <point x="123" y="144"/>
      <point x="123" y="265" type="curve" smooth="yes"/>
      <point x="123" y="387"/>
      <point x="185" y="483"/>
      <point x="312" y="483" type="curve" smooth="yes"/>
      <point x="430" y="483"/>
      <point x="494" y="400"/>
      <point x="494" y="282" type="curve"/>
      <point x="512" y="309" type="line"/>
      <point x="88" y="309" type="line"/>
      <point x="88" y="254" type="line"/>
      <point x="561" y="254" type="line"/>
      <point x="561" y="292" type="line" smooth="yes"/>
      <point x="561" y="422"/>
      <point x="476" y="546"/>
      <point x="312" y="546" type="curve" smooth="yes"/>
      <point x="139" y="546"/>
      <point x="56" y="409"/>
      <point x="56" y="272" type="curve" smooth="yes"/>
      <point x="56" y="259" type="line" smooth="yes"/>
      <point x="56" y="122"/>
      <point x="135" y="-17"/>
    </contour>
  </outline>
</glyph>
<glyph name="g" format="2">
  <advance width="671"/>
  <unicode hex="0067"/>
  <anchor x="307" y="-300" name="bottom"/>
  <anchor x="338" y="528" name="top"/>
  <outline>
    <contour>
      <point x="300" y="-206" type="curve" smooth="yes"/>
      <point x="502" y="-206"/>
      <point x="578" y="-133"/>
      <point x="578" y="57" type="curve" smooth="yes"/>
      <point x="578" y="528" type="line"/>
      <point x="522" y="528" type="line"/>
      <point x="522" y="316" type="line"/>
      <point x="545" y="300" type="line"/>
      <point x="542" y="444"/>
      <point x="452" y="546"/>
      <point x="310" y="546" type="curve" smooth="yes"/>
      <point x="154" y="546"/>
      <point x="56" y="419"/>
      <point x="56" y="277" type="curve" smooth="yes"/>
      <point x="56" y="264" type="line" smooth="yes"/>
      <point x="56" y="121"/>
      <point x="153" y="-9"/>
      <point x="307" y="-9" type="curve" smooth="yes"/>
      <point x="439" y="-9"/>
      <point x="533" y="83"/>
      <point x="538" y="235" type="curve"/>
      <point x="510" y="161" type="line"/>
      <point x="510" y="55" type="line" smooth="yes"/>
      <point x="510" y="-91"/>
      <point x="457" y="-147"/>
      <point x="304" y="-147" type="curve" smooth="yes"/>
      <point x="257" y="-147"/>
      <point x="202" y="-142"/>
      <point x="154" y="-134" type="curve"/>
      <point x="154" y="-195" type="line"/>
      <point x="199" y="-202"/>
      <point x="251" y="-206"/>
    </contour>
    <contour>
      <point x="319" y="56" type="curve" smooth="yes"/>
      <point x="202" y="56"/>
      <point x="126" y="147"/>
      <point x="126" y="271" type="curve" smooth="yes"/>
      <point x="126" y="390"/>
      <point x="199" y="486"/>
      <point x="320" y="486" type="curve" smooth="yes"/>
      <point x="428" y="486"/>
      <point x="511" y="409"/>
      <point x="511" y="298" type="curve" smooth="yes"/>
      <point x="511" y="249" type="line" smooth="yes"/>
      <point x="511" y="134"/>
      <point x="429" y="56"/>
    </contour>
  </outline>
</glyph>
<glyph name="i" format="2">
  <advance width="297"/>
  <unicode hex="0069"/>
  <anchor x="161" y="0" name="bottom"/>
  <outline>
    <contour>
      <point x="126" y="0" type="line"/>
      <point x="196" y="0" type="line"/>
      <point x="196" y="528" type="line"/>
      <point x="126" y="528" type="line"/>
    </contour>
    <contour>
      <point x="41" y="471" type="line"/>
      <point x="196" y="471" type="line"/>
      <point x="196" y="528" type="line"/>
      <point x="41" y="528" type="line"/>
    </contour>
    <contour>
      <point x="140" y="629" type="curve" smooth="yes"/>
      <point x="174" y="629"/>
      <point x="191" y="649"/>
      <point x="191" y="678" type="curve" smooth="yes"/>
      <point x="191" y="706"/>
      <point x="174" y="727"/>
      <point x="140" y="727" type="curve" smooth="yes"/>
      <point x="105" y="727"/>
      <point x="89" y="706"/>
      <point x="89" y="678" type="curve" smooth="yes"/>
      <point x="89" y="649"/>
      <point x="105" y="629"/>
    </contour>
  </outline>
</glyph>
<glyph name="j" format="2">
  <advance width="305"/>
  <unicode hex="006A"/>
  <outline>
    <contour>
      <point x="-4" y="-203" type="line"/>
      <point x="44" y="-203" type="line" smooth="yes"/>
      <point x="161" y="-203"/>
      <point x="206" y="-159"/>
      <point x="206" y="-38" type="curve" smooth="yes"/>
      <point x="206" y="528" type="line"/>
      <point x="138" y="528" type="line"/>
      <point x="138" y="-52" type="line" smooth="yes"/>
      <point x="138" y="-109"/>
      <point x="110" y="-140"/>
      <point x="58" y="-140" type="curve" smooth="yes"/>
      <point x="-4" y="-140" type="line"/>
    </contour>
    <contour>
      <point x="51" y="471" type="line"/>
      <point x="206" y="471" type="line"/>
      <point x="206" y="528" type="line"/>
      <point x="51" y="528" type="line"/>
    </contour>
    <contour>
      <point x="150" y="638" type="curve" smooth="yes"/>
      <point x="184" y="638"/>
      <point x="201" y="658"/>
      <point x="201" y="687" type="curve" smooth="yes"/>
      <point x="201" y="715"/>
      <point x="184" y="736"/>
      <point x="150" y="736" type="curve" smooth="yes"/>
      <point x="115" y="736"/>
      <point x="98" y="715"/>
      <point x="98" y="687" type="curve" smooth="yes"/>
      <point x="98" y="658"/>
      <point x="115" y="638"/>
    </contour>
  </outline>
</glyph>
<glyph name="k" format="2">
  <advance width="544"/>
  <unicode hex="006B"/>
  <anchor x="313" y="0" name="bottom"/>
  <anchor x="134" y="730" name="top"/>
  <outline>
    <contour>
      <point x="456" y="0" type="line"/>
      <point x="539" y="0" type="line"/>
      <point x="261" y="317" type="line"/>
      <point x="258" y="278" type="line"/>
      <point x="483" y="528" type="line"/>
      <point x="407" y="528" type="line"/>
      <point x="156" y="248" type="line"/>
      <point x="241" y="248" type="line"/>
    </contour>
    <contour>
      <point x="99" y="0" type="line"/>
      <point x="169" y="0" type="line"/>
      <point x="169" y="730" type="line"/>
      <point x="99" y="730" type="line"/>
    </contour>
  </outline>
</glyph>
<glyph name="m" format="2">
  <advance width="961"/>
  <unicode hex="006D"/>
  <outline>
    <contour>
      <point x="99" y="0" type="line"/>
      <point x="169" y="0" type="line"/>
      <point x="169" y="318" type="line" smooth="yes"/>
      <point x="169" y="416"/>
      <point x="224" y="479"/>
      <point x="314" y="479" type="curve" smooth="yes"/>
      <point x="402" y="479"/>
      <point x="449" y="418"/>
      <point x="449" y="324" type="curve" smooth="yes"/>
      <point x="449" y="0" type="line"/>
      <point x="519" y="0" type="line"/>
      <point x="519" y="318" type="line" smooth="yes"/>
      <point x="519" y="416"/>
      <point x="575" y="479"/>
      <point x="665" y="479" type="curve" smooth="yes"/>
      <point x="752" y="479"/>
      <point x="799" y="418"/>
      <point x="799" y="324" type="curve" smooth="yes"/>
      <point x="799" y="0" type="line"/>
      <point x="869" y="0" type="line"/>
      <point x="869" y="308" type="line" smooth="yes"/>
      <point x="869" y="453"/>
      <point x="808" y="544"/>
      <point x="683" y="544" type="curve" smooth="yes"/>
      <point x="680" y="544" type="line" smooth="yes"/>
      <point x="554" y="544"/>
      <point x="493" y="451"/>
      <point x="493" y="308" type="curve"/>
      <point x="516" y="308" type="line"/>
      <point x="516" y="453"/>
      <point x="457" y="544"/>
      <point x="331" y="544" type="curve" smooth="yes"/>
      <point x="328" y="544" type="line" smooth="yes"/>
      <point x="202" y="544"/>
      <point x="142" y="451"/>
      <point x="142" y="308" type="curve"/>
      <point x="154" y="308" type="line"/>
      <point x="154" y="529" type="line"/>
      <point x="99" y="529" type="line"/>
    </contour>
  </outline>
</glyph>
<glyph name="q" format="2">
  <advance width="683"/>
  <unicode hex="0071"/>
  <outline>
    <contour>
      <point x="514" y="-200" type="line"/>
      <point x="584" y="-200" type="line"/>
      <point x="584" y="528" type="line"/>
      <point x="529" y="528" type="line"/>
      <point x="529" y="307" type="line"/>
      <point x="552" y="299" type="line"/>
      <point x="548" y="444"/>
      <point x="457" y="546"/>
      <point x="314" y="546" type="curve" smooth="yes"/>
      <point x="154" y="546"/>
      <point x="56" y="416"/>
      <point x="56" y="273" type="curve" smooth="yes"/>
      <point x="56" y="260" type="line" smooth="yes"/>
      <point x="56" y="114"/>
      <point x="156" y="-17"/>
      <point x="312" y="-17" type="curve" smooth="yes"/>
      <point x="444" y="-17"/>
      <point x="541" y="75"/>
      <point x="545" y="233" type="curve"/>
      <point x="514" y="159" type="line"/>
    </contour>
    <contour>
      <point x="323" y="47" type="curve" smooth="yes"/>
      <point x="204" y="47"/>
      <point x="126" y="141"/>
      <point x="126" y="267" type="curve" smooth="yes"/>
      <point x="126" y="388"/>
      <point x="200" y="486"/>
      <point x="323" y="486" type="curve" smooth="yes"/>
      <point x="434" y="486"/>
      <point x="518" y="407"/>
      <point x="518" y="294" type="curve" smooth="yes"/>
      <point x="518" y="245" type="line" smooth="yes"/>
      <point x="518" y="127"/>
      <point x="435" y="47"/>
    </contour>
  </outline>
</glyph>
<glyph name="v" format="2">
  <advance width="545"/>
  <unicode hex="0076"/>
  <outline>
    <contour>
      <point x="217" y="0" type="line"/>
      <point x="287" y="0" type="line"/>
      <point x="102" y="528" type="line"/>
      <point x="30" y="528" type="line"/>
    </contour>
    <contour>
      <point x="236" y="0" type="line"/>
      <point x="326" y="0" type="line"/>
      <point x="326" y="57" type="line"/>
      <point x="236" y="57" type="line"/>
    </contour>
    <contour>
      <point x="276" y="0" type="line"/>
      <point x="343" y="0" type="line"/>
      <point x="508" y="528" type="line"/>
      <point x="439" y="528" type="line"/>
    </contour>
  </outline>
</glyph>
<glyph name="w" format="2">
  <advance width="822"/>
  <unicode hex="0077"/>
  <anchor x="413" y="0" name="bottom"/>
  <anchor x="410" y="528" name="top"/>
  <outline>
    <contour>
      <point x="244" y="0" type="line"/>
      <point x="303" y="0" type="line"/>
      <point x="419" y="508" type="line"/>
      <point x="397" y="508" type="line"/>
      <point x="528" y="0" type="line"/>
      <point x="590" y="0" type="line"/>
      <point x="458" y="511" type="line"/>
      <point x="359" y="511" type="line"/>
    </contour>
    <contour>
      <point x="203" y="0" type="line"/>
      <point x="290" y="0" type="line"/>
      <point x="290" y="57" type="line"/>
      <point x="203" y="57" type="line"/>
    </contour>
    <contour>
      <point x="186" y="0" type="line"/>
      <point x="251" y="0" type="line"/>
      <point x="100" y="528" type="line"/>
      <point x="32" y="528" type="line"/>
    </contour>
    <contour>
      <point x="545" y="0" type="line"/>
      <point x="629" y="0" type="line"/>
      <point x="629" y="57" type="line"/>
      <point x="545" y="57" type="line"/>
    </contour>
    <contour>
      <point x="583" y="0" type="line"/>
      <point x="645" y="0" type="line"/>
      <point x="781" y="528" type="line"/>
      <point x="716" y="528" type="line"/>
    </contour>
  </outline>
</glyph>
<glyph name="z" format="2">
  <advance width="484"/>
  <unicode hex="007A"/>
  <anchor x="250" y="0" name="bottom"/>
  <anchor x="245" y="267" name="center"/>
  <anchor x="242" y="528" name="top"/>
  <outline>
    <contour>
      <point x="60" y="0" type="line"/>
      <point x="444" y="0" type="line"/>
      <point x="444" y="57" type="line"/>
      <point x="125" y="57" type="line"/>
      <point x="136" y="50" type="line"/>
      <point x="121" y="71" type="line"/>
      <point x="117" y="56" type="line"/>
      <point x="429" y="445" type="line"/>
      <point x="429" y="528" type="line"/>
      <point x="57" y="528" type="line"/>
      <point x="57" y="472" type="line"/>
      <point x="365" y="472" type="line"/>
      <point x="354" y="477" type="line"/>
      <point x="368" y="456" type="line"/>
      <point x="371" y="473" type="line"/>
      <point x="60" y="83" type="line"/>
    </contour>
  </outline>
</glyph>
<glyph name="cent" format="2">
  <advance width="614"/>
  <unicode hex="00A2"/>
  <outline>
    <contour>
      <point x="322" y="106" type="curve" smooth="yes"/>
      <point x="447" y="106"/>
      <point x="550" y="175"/>
      <point x="566" y="289" type="curve"/>
      <point x="498" y="289" type="line"/>
      <point x="486" y="218"/>
      <point x="417" y="167"/>
      <point x="322" y="167" type="curve" smooth="yes"/>
      <point x="196" y="167"/>
      <point x="129" y="255"/>
      <point x="129" y="368" type="curve" smooth="yes"/>
      <point x="129" y="483"/>
      <point x="197" y="568"/>
      <point x="321" y="568" type="curve" smooth="yes"/>
      <point x="415" y="568"/>
      <point x="477" y="519"/>
      <point x="491" y="453" type="curve"/>
      <point x="558" y="453" type="line"/>
      <point x="538" y="565"/>
      <point x="445" y="629"/>
      <point x="321" y="629" type="curve" smooth="yes"/>
      <point x="148" y="629"/>
      <point x="60" y="505"/>
      <point x="60" y="377" type="curve" smooth="yes"/>
      <point x="60" y="360" type="line" smooth="yes"/>
      <point x="60" y="233"/>
      <point x="147" y="106"/>
    </contour>
    <contour>
      <point x="290" y="0" type="line"/>
      <point x="354" y="0" type="line"/>
      <point x="354" y="135" type="line"/>
      <point x="290" y="135" type="line"/>
    </contour>
    <contour>
      <point x="290" y="595" type="line"/>
      <point x="354" y="595" type="line"/>
      <point x="354" y="730" type="line"/>
      <point x="290" y="730" type="line"/>
    </contour>
  </outline>
</glyph>
<glyph name="yen" format="2">
  <advance width="603"/>
  <unicode hex="00A5"/>
  <outline>
    <contour>
      <point x="249" y="312" type="line"/>
      <point x="368" y="312" type="line"/>
      <point x="580" y="730" type="line"/>
      <point x="510" y="730" type="line"/>
      <point x="320" y="353" type="line"/>
      <point x="354" y="360" type="line"/>
      <point x="266" y="360" type="line"/>
      <point x="298" y="353" type="line"/>
      <point x="98" y="730" type="line"/>
      <point x="23" y="730" type="line"/>
    </contour>
    <contour>
      <point x="275" y="0" type="line"/>
      <point x="340" y="0" type="line"/>
      <point x="340" y="327" type="line"/>
      <point x="275" y="327" type="line"/>
    </contour>
    <contour>
      <point x="58" y="163" type="line"/>
      <point x="557" y="163" type="line"/>
      <point x="557" y="214" type="line"/>
      <point x="58" y="214" type="line"/>
    </contour>
    <contour>
      <point x="58" y="310" type="line"/>
      <point x="557" y="310" type="line"/>
      <point x="557" y="360" type="line"/>
      <point x="58" y="360" type="line"/>
    </contour>
  </outline>
</glyph>
<glyph name="brokenbar" format="2">
  <advance width="372"/>
  <unicode hex="00A6"/>
  <outline>
    <contour>
      <point x="155" y="359" type="line"/>
      <point x="218" y="359" type="line"/>
      <point x="218" y="730" type="line"/>
      <point x="155" y="730" type="line"/>
    </contour>
    <contour>
      <point x="155" y="-200" type="line"/>
      <point x="218" y="-200" type="line"/>
      <point x="218" y="157" type="line"/>
      <point x="155" y="157" type="line"/>
    </contour>
  </outline>
</glyph>
<glyph name="registered" format="2">
  <advance width="678"/>
  <unicode hex="00AE"/>
  <outline>
    <contour>
      <point x="339" y="183" type="curve" smooth="yes"/>
      <point x="523" y="183"/>
      <point x="624" y="323"/>
      <point x="624" y="460" type="curve" smooth="yes"/>
      <point x="624" y="473" type="line" smooth="yes"/>
      <point x="624" y="613"/>
      <point x="521" y="749"/>
      <point x="339" y="749" type="curve" smooth="yes"/>
      <point x="157" y="749"/>
      <point x="54" y="613"/>
      <point x="54" y="473" type="curve" smooth="yes"/>
      <point x="54" y="460" type="line" smooth="yes"/>
      <point x="54" y="323"/>
      <point x="155" y="183"/>
    </contour>
    <contour>
      <point x="339" y="225" type="curve" smooth="yes"/>
      <point x="189" y="225"/>
      <point x="99" y="336"/>
      <point x="99" y="466" type="curve" smooth="yes"/>
      <point x="99" y="598"/>
      <point x="189" y="707"/>
      <point x="339" y="707" type="curve" smooth="yes"/>
      <point x="489" y="707"/>
      <point x="579" y="598"/>
      <point x="579" y="466" type="curve" smooth="yes"/>
      <point x="579" y="336"/>
      <point x="489" y="225"/>
    </contour>
    <contour>
      <point x="237" y="319" type="line"/>
      <point x="283" y="319" type="line"/>
      <point x="283" y="623" type="line"/>
      <point x="237" y="623" type="line"/>
    </contour>
    <contour>
      <point x="421" y="319" type="line"/>
      <point x="475" y="319" type="line"/>
      <point x="372" y="442" type="line"/>
      <point x="320" y="442" type="line"/>
    </contour>
    <contour>
      <point x="259" y="427" type="line"/>
      <point x="338" y="427" type="line" smooth="yes"/>
      <point x="410" y="427"/>
      <point x="454" y="465"/>
      <point x="454" y="525" type="curve" smooth="yes"/>
      <point x="454" y="587"/>
      <point x="410" y="623"/>
      <point x="338" y="623" type="curve" smooth="yes"/>
      <point x="259" y="623" type="line"/>
      <point x="259" y="582" type="line"/>
      <point x="342" y="582" type="line" smooth="yes"/>
      <point x="387" y="582"/>
      <point x="408" y="565"/>
      <point x="408" y="525" type="curve" smooth="yes"/>
      <point x="408" y="487"/>
      <point x="387" y="468"/>
      <point x="342" y="468" type="curve" smooth="yes"/>
      <point x="259" y="468" type="line"/>
    </contour>
  </outline>
</glyph>
<glyph name="degree" format="2">
  <advance width="346"/>
  <unicode hex="00B0"/>
  <outline>
    <contour>
      <point x="173" y="449" type="curve" smooth="yes"/>
      <point x="256" y="449"/>
      <point x="316" y="510"/>
      <point x="316" y="590" type="curve" smooth="yes"/>
      <point x="316" y="669"/>
      <point x="256" y="730"/>
      <point x="173" y="730" type="curve" smooth="yes"/>
      <point x="91" y="730"/>
      <point x="30" y="669"/>
      <point x="30" y="590" type="curve" smooth="yes"/>
      <point x="30" y="510"/>
      <point x="91" y="449"/>
    </contour>
    <contour>
      <point x="173" y="498" type="curve" smooth="yes"/>
      <point x="119" y="498"/>
      <point x="84" y="538"/>
      <point x="84" y="590" type="curve" smooth="yes"/>
      <point x="84" y="640"/>
      <point x="119" y="681"/>
      <point x="173" y="681" type="curve" smooth="yes"/>
      <point x="228" y="681"/>
      <point x="263" y="640"/>
      <point x="263" y="590" type="curve" smooth="yes"/>
      <point x="263" y="538"/>
      <point x="228" y="498"/>
    </contour>
  </outline>
</glyph>
<glyph name="Thorn" format="2">
  <advance width="610"/>
  <unicode hex="00DE"/>
  <outline>
    <contour>
      <point x="167" y="147" type="line"/>
      <point x="318" y="147" type="line" smooth="yes"/>
      <point x="485" y="147"/>
      <point x="565" y="242"/>
      <point x="565" y="365" type="curve" smooth="yes"/>
      <point x="565" y="378" type="line" smooth="yes"/>
      <point x="565" y="500"/>
      <point x="485" y="596"/>
      <point x="318" y="596" type="curve" smooth="yes"/>
      <point x="167" y="596" type="line"/>
      <point x="167" y="533" type="line"/>
      <point x="327" y="533" type="line" smooth="yes"/>
      <point x="444" y="533"/>
      <point x="493" y="464"/>
      <point x="493" y="371" type="curve" smooth="yes"/>
      <point x="493" y="279"/>
      <point x="444" y="210"/>
      <point x="327" y="210" type="curve" smooth="yes"/>
      <point x="167" y="210" type="line"/>
    </contour>
    <contour>
      <point x="116" y="0" type="line"/>
      <point x="187" y="0" type="line"/>
      <point x="187" y="731" type="line"/>
      <point x="116" y="731" type="line"/>
    </contour>
  </outline>
</glyph>
<glyph name="germandbls" format="2">
  <advance width="607"/>
  <unicode hex="00DF"/>
  <outline>
    <contour>
      <point x="333" y="-12" type="curve" smooth="yes"/>
      <point x="479" y="-12"/>
      <point x="561" y="75"/>
      <point x="561" y="193" type="curve" smooth="yes"/>
      <point x="561" y="325"/>
      <point x="464" y="410"/>
      <point x="304" y="410" type="curve"/>
      <point x="300" y="383" type="line"/>
      <point x="415" y="383"/>
      <point x="488" y="453"/>
      <point x="488" y="556" type="curve" smooth="yes"/>
      <point x="488" y="656"/>
      <point x="420" y="742"/>
      <point x="301" y="742" type="curve" smooth="yes"/>
      <point x="297" y="742" type="line" smooth="yes"/>
      <point x="172" y="742"/>
      <point x="102" y="653"/>
      <point x="102" y="506" type="curve" smooth="yes"/>
      <point x="102" y="0" type="line"/>
      <point x="172" y="0" type="line"/>
      <point x="172" y="517" type="line" smooth="yes"/>
      <point x="172" y="609"/>
      <point x="212" y="682"/>
      <point x="299" y="682" type="curve" smooth="yes"/>
      <point x="381" y="682"/>
      <point x="418" y="617"/>
      <point x="418" y="554" type="curve" smooth="yes"/>
      <point x="418" y="490"/>
      <point x="380" y="425"/>
      <point x="297" y="425" type="curve" smooth="yes"/>
      <point x="268" y="425" type="line"/>
      <point x="268" y="368" type="line"/>
      <point x="308" y="368" type="line" smooth="yes"/>
      <point x="415" y="368"/>
      <point x="491" y="299"/>
      <point x="491" y="197" type="curve" smooth="yes"/>
      <point x="491" y="113"/>
      <point x="440" y="49"/>
      <point x="333" y="49" type="curve" smooth="yes"/>
      <point x="305" y="49"/>
      <point x="265" y="54"/>
      <point x="237" y="59" type="curve"/>
      <point x="237" y="-2" type="line"/>
      <point x="263" y="-7"/>
      <point x="300" y="-12"/>
    </contour>
    <contour>
      <point x="42" y="463" type="line"/>
      <point x="128" y="463" type="line"/>
      <point x="128" y="520" type="line"/>
      <point x="42" y="520" type="line"/>
    </contour>
  </outline>
</glyph>
<glyph name="oslash" format="2">
  <advance width="667"/>
  <unicode hex="00F8"/>
  <anchor x="334" y="0" name="bottom"/>
  <anchor x="334" y="264" name="center"/>
  <anchor x="448" y="10" name="ogonek"/>
  <anchor x="334" y="528" name="top"/>
  <outline>
    <contour>
      <point x="85" y="-45" type="line"/>
      <point x="147" y="-45" type="line"/>
      <point x="585" y="580" type="line"/>
      <point x="523" y="580" type="line"/>
    </contour>
    <component base="o"/>
  </outline>
</glyph>
<glyph name="Lslash" format="2">
  <advance width="538"/>
  <unicode hex="0141"/>
  <anchor x="317" y="0" name="bottom"/>
  <anchor x="152" y="365" name="center"/>
  <anchor x="151" y="730" name="top"/>
  <anchor x="259" y="541" name="topright"/>
  <outline>
    <contour>
      <point x="163" y="306" type="line"/>
      <point x="369" y="426" type="line"/>
      <point x="369" y="488" type="line"/>
      <point x="163" y="368" type="line"/>
    </contour>
    <contour>
      <point x="34" y="233" type="line"/>
      <point x="137" y="293" type="line"/>
      <point x="137" y="355" type="line"/>
      <point x="34" y="295" type="line"/>
    </contour>
    <component base="L"/>
  </outline>
</glyph>
<glyph name="eng" format="2">
  <advance width="634"/>
  <unicode hex="014B"/>
  <anchor x="321" y="0" name="bottom"/>
  <anchor x="325" y="528" name="top"/>
  <outline>
    <contour>
      <point x="313" y="-201" type="line"/>
      <point x="376" y="-201" type="line" smooth="yes"/>
      <point x="490" y="-201"/>
      <point x="543" y="-152"/>
      <point x="543" y="-32" type="curve" smooth="yes"/>
      <point x="543" y="20" type="line"/>
      <point x="473" y="20" type="line"/>
      <point x="473" y="-46" type="line" smooth="yes"/>
      <point x="473" y="-105"/>
      <point x="443" y="-138"/>
      <point x="389" y="-138" type="curve" smooth="yes"/>
      <point x="313" y="-138" type="line"/>
    </contour>
    <component base="n"/>
  </outline>
</glyph>
<glyph name="oe" format="2">
  <advance width="1091"/>
  <unicode hex="0153"/>
  <outline>
    <contour>
      <point x="333" y="-17" type="curve" smooth="yes"/>
      <point x="518" y="-17"/>
      <point x="598" y="126"/>
      <point x="598" y="258" type="curve"/>
      <point x="550" y="258" type="line"/>
      <point x="550" y="125"/>
      <point x="615" y="-17"/>
      <point x="800" y="-17" type="curve" smooth="yes"/>
      <point x="926" y="-17"/>
      <point x="1012" y="48"/>
      <point x="1035" y="152" type="curve"/>
      <point x="968" y="152" type="line"/>
      <point x="955" y="93"/>
      <point x="895" y="46"/>
      <point x="800" y="46" type="curve" smooth="yes"/>
      <point x="667" y="46"/>
      <point x="605" y="144"/>
      <point x="605" y="265" type="curve" smooth="yes"/>
      <point x="605" y="387"/>
      <point x="669" y="482"/>
      <point x="794" y="482" type="curve" smooth="yes"/>
      <point x="912" y="482"/>
      <point x="976" y="400"/>
      <point x="976" y="282" type="curve"/>
      <point x="995" y="309" type="line"/>
      <point x="595" y="309" type="line"/>
      <point x="595" y="254" type="line"/>
      <point x="1043" y="254" type="line"/>
      <point x="1043" y="292" type="line" smooth="yes"/>
      <point x="1043" y="423"/>
      <point x="958" y="546"/>
      <point x="794" y="546" type="curve" smooth="yes"/>
      <point x="621" y="546"/>
      <point x="550" y="410"/>
      <point x="550" y="272" type="curve"/>
      <point x="598" y="272" type="line"/>
      <point x="598" y="408"/>
      <point x="512" y="546"/>
      <point x="333" y="546" type="curve" smooth="yes"/>
      <point x="157" y="546"/>
      <point x="56" y="410"/>
      <point x="56" y="271" type="curve" smooth="yes"/>
      <point x="56" y="258" type="line" smooth="yes"/>
      <point x="56" y="121"/>
      <point x="152" y="-17"/>
    </contour>
    <contour>
      <point x="333" y="46" type="curve" smooth="yes"/>
      <point x="201" y="46"/>
      <point x="126" y="144"/>
      <point x="126" y="264" type="curve" smooth="yes"/>
      <point x="126" y="387"/>
      <point x="204" y="482"/>
      <point x="333" y="482" type="curve" smooth="yes"/>
      <point x="462" y="482"/>
      <point x="540" y="385"/>
      <point x="540" y="264" type="curve" smooth="yes"/>
      <point x="540" y="146"/>
      <point x="465" y="46"/>
    </contour>
  </outline>
</glyph>
<glyph name="Tbar" format="2">
  <advance width="587"/>
  <unicode hex="0166"/>
  <anchor x="293" y="0" name="bottom"/>
  <anchor x="293" y="365" name="center"/>
  <anchor x="293" y="730" name="top"/>
  <outline>
    <contour>
      <point x="95" y="337" type="line"/>
      <point x="491" y="337" type="line"/>
      <point x="491" y="396" type="line"/>
      <point x="95" y="396" type="line"/>
    </contour>
    <component base="T"/>
  </outline>
</glyph>
<glyph name="jdotless" format="2">
  <advance width="305"/>
  <unicode hex="0237"/>
  <anchor x="160" y="-300" name="bottom"/>
  <anchor x="133" y="528" name="top"/>
  <outline>
    <contour>
      <point x="-4" y="-203" type="line"/>
      <point x="44" y="-203" type="line" smooth="yes"/>
      <point x="161" y="-203"/>
      <point x="206" y="-159"/>
      <point x="206" y="-38" type="curve" smooth="yes"/>
      <point x="206" y="528" type="line"/>
      <point x="138" y="528" type="line"/>
      <point x="138" y="-52" type="line" smooth="yes"/>
      <point x="138" y="-109"/>
      <point x="110" y="-140"/>
      <point x="58" y="-140" type="curve" smooth="yes"/>
      <point x="-4" y="-140" type="line"/>
    </contour>
    <contour>
      <point x="51" y="471" type="line"/>
      <point x="206" y="471" type="line"/>
      <point x="206" y="528" type="line"/>
      <point x="51" y="528" type="line"/>
    </contour>
  </outline>
</glyph>
<glyph name="gravecomb" format="2">
  <unicode hex="0300"/>
  <anchor x="126" y="528" name="_top"/>
  <anchor x="41" y="804" name="top"/>
  <outline>
    <contour>
      <point x="104" y="612" type="line"/>
      <point x="166" y="612" type="line"/>
      <point x="76" y="804" type="line"/>
      <point x="0" y="804" type="line"/>
    </contour>
  </outline>
</glyph>
<glyph name="acutecomb" format="2">
  <unicode hex="0301"/>
  <anchor x="39" y="528" name="_top"/>
  <anchor x="121" y="804" name="top"/>
  <outline>
    <contour>
      <point x="0" y="612" type="line"/>
      <point x="59" y="612" type="line"/>
      <point x="160" y="804" type="line"/>
      <point x="86" y="804" type="line"/>
    </contour>
  </outline>
</glyph>
<glyph name="tildecomb" format="2">
  <unicode hex="0303"/>
  <anchor x="152" y="528" name="_top"/>
  <anchor x="152" y="817" name="top"/>
  <outline>
    <contour>
      <point x="218" y="646" type="curve" smooth="yes"/>
      <point x="255" y="646"/>
      <point x="286" y="665"/>
      <point x="306" y="695" type="curve"/>
      <point x="288" y="740" type="line"/>
      <point x="270" y="714"/>
      <point x="247" y="699"/>
      <point x="220" y="699" type="curve" smooth="yes"/>
      <point x="172" y="699"/>
      <point x="151" y="750"/>
      <point x="87" y="750" type="curve" smooth="yes"/>
      <point x="51" y="750"/>
      <point x="20" y="731"/>
      <point x="0" y="701" type="curve"/>
      <point x="18" y="656" type="line"/>
      <point x="37" y="682"/>
      <point x="58" y="697"/>
      <point x="85" y="697" type="curve" smooth="yes"/>
      <point x="135" y="697"/>
      <point x="156" y="646"/>
    </contour>
  </outline>
</glyph>
<glyph name="dotaccentcomb" format="2">
  <unicode hex="0307"/>
  <anchor x="51" y="528" name="_top"/>
  <anchor x="51" y="806" name="top"/>
  <outline>
    <contour>
      <point x="51" y="648" type="curve" smooth="yes"/>
      <point x="86" y="648"/>
      <point x="103" y="669"/>
      <point x="103" y="697" type="curve" smooth="yes"/>
      <point x="103" y="725"/>
      <point x="86" y="746"/>
      <point x="51" y="746" type="curve" smooth="yes"/>
      <point x="17" y="746"/>
      <point x="0" y="725"/>
      <point x="0" y="697" type="curve" smooth="yes"/>
      <point x="0" y="669"/>
      <point x="17" y="648"/>
    </contour>
  </outline>
</glyph>
<glyph name="hungarumlautcomb" format="2">
  <unicode hex="030B"/>
  <anchor x="108" y="528" name="_top"/>
  <anchor x="165" y="804" name="top"/>
  <outline>
    <contour>
      <point x="154" y="612" type="line"/>
      <point x="210" y="612" type="line"/>
      <point x="292" y="804" type="line"/>
      <point x="224" y="804" type="line"/>
    </contour>
    <contour>
      <point x="0" y="612" type="line"/>
      <point x="56" y="612" type="line"/>
      <point x="137" y="804" type="line"/>
      <point x="69" y="804" type="line"/>
    </contour>
  </outline>
</glyph>
<glyph name="caroncomb" format="2">
  <unicode hex="030C"/>
  <anchor x="148" y="528" name="_top"/>
  <anchor x="145" y="804" name="top"/>
  <outline>
    <contour>
      <point x="108" y="612" type="line"/>
      <point x="190" y="612" type="line"/>
      <point x="288" y="804" type="line"/>
      <point x="231" y="804" type="line"/>
      <point x="154" y="649" type="line"/>
      <point x="146" y="649" type="line"/>
      <point x="60" y="804" type="line"/>
      <point x="0" y="804" type="line"/>
    </contour>
  </outline>
</glyph>
<glyph name="cedillacomb" format="2">
  <unicode hex="0327"/>
  <anchor x="122" y="0" name="_bottom"/>
  <anchor x="126" y="-300" name="bottom"/>
  <outline>
    <contour>
      <point x="123" y="-234" type="curve" smooth="yes"/>
      <point x="197" y="-234"/>
      <point x="241" y="-195"/>
      <point x="241" y="-140" type="curve" smooth="yes"/>
      <point x="241" y="-88"/>
      <point x="197" y="-55"/>
      <point x="127" y="-55" type="curve" smooth="yes"/>
      <point x="113" y="-55" type="line"/>
      <point x="142" y="-85" type="line"/>
      <point x="142" y="10" type="line"/>
      <point x="97" y="10" type="line"/>
      <point x="97" y="-100" type="line"/>
      <point x="130" y="-100" type="line" smooth="yes"/>
      <point x="171" y="-100"/>
      <point x="189" y="-117"/>
      <point x="189" y="-141" type="curve" smooth="yes"/>
      <point x="189" y="-168"/>
      <point x="167" y="-184"/>
      <point x="123" y="-184" type="curve" smooth="yes"/>
      <point x="101" y="-184"/>
      <point x="75" y="-181"/>
      <point x="56" y="-176" type="curve"/>
      <point x="56" y="-225" type="line"/>
      <point x="74" y="-230"/>
      <point x="98" y="-234"/>
    </contour>
  </outline>
</glyph>
<glyph name="strokeshortcomb" format="2">
  <unicode hex="0335"/>
  <anchor x="150" y="267" name="_center"/>
  <outline>
    <contour>
      <point x="-17" y="242" type="line"/>
      <point x="317" y="242" type="line"/>
      <point x="317" y="292" type="line"/>
      <point x="-17" y="292" type="line"/>
    </contour>
  </outline>
</glyph>
<glyph name="endash" format="2">
  <advance width="505"/>
  <unicode hex="2013"/>
  <outline>
    <contour>
      <point x="18" y="248" type="line"/>
      <point x="487" y="248" type="line"/>
      <point x="487" y="308" type="line"/>
      <point x="18" y="308" type="line"/>
    </contour>
  </outline>
</glyph>
<glyph name="emdash" format="2">
  <advance width="893"/>
  <unicode hex="2014"/>
  <outline>
    <contour>
      <point x="18" y="248" type="line"/>
      <point x="875" y="248" type="line"/>
      <point x="875" y="308" type="line"/>
      <point x="18" y="308" type="line"/>
    </contour>
  </outline>
</glyph>
<glyph name="quoteright" format="2">
  <advance width="237"/>
  <unicode hex="2019"/>
  <outline>
    <contour>
      <point x="51" y="446" type="line"/>
      <point x="59" y="446" type="line" smooth="yes"/>
      <point x="139" y="446"/>
      <point x="191" y="479"/>
      <point x="191" y="621" type="curve" smooth="yes"/>
      <point x="191" y="640" type="line" smooth="yes"/>
      <point x="191" y="714"/>
      <point x="160" y="736"/>
      <point x="125" y="736" type="curve" smooth="yes"/>
      <point x="91" y="736"/>
      <point x="71" y="713"/>
      <point x="71" y="682" type="curve" smooth="yes"/>
      <point x="71" y="647"/>
      <point x="94" y="627"/>
      <point x="125" y="627" type="curve" smooth="yes"/>
      <point x="139" y="627"/>
      <point x="154" y="630"/>
      <point x="162" y="635" type="curve"/>
      <point x="145" y="667" type="line"/>
      <point x="145" y="602" type="line" smooth="yes"/>
      <point x="145" y="517"/>
      <point x="121" y="488"/>
      <point x="60" y="488" type="curve" smooth="yes"/>
      <point x="51" y="488" type="line"/>
    </contour>
  </outline>
</glyph>
<glyph name="dagger" format="2">
  <advance width="527"/>
  <unicode hex="2020"/>
  <outline>
    <contour>
      <point x="232" y="-200" type="line"/>
      <point x="295" y="-200" type="line"/>
      <point x="295" y="382" type="line"/>
      <point x="232" y="382" type="line"/>
    </contour>
    <contour>
      <point x="53" y="472" type="line"/>
      <point x="474" y="472" type="line"/>
      <point x="474" y="528" type="line"/>
      <point x="53" y="528" type="line"/>
    </contour>
    <contour>
      <point x="232" y="504" type="line"/>
      <point x="295" y="504" type="line"/>
      <point x="295" y="730" type="line"/>
      <point x="232" y="730" type="line"/>
    </contour>
  </outline>
</glyph>
<glyph name="daggerdbl" format="2">
  <advance width="527"/>
  <unicode hex="2021"/>
  <outline>
    <contour>
      <point x="53" y="472" type="line"/>
      <point x="474" y="472" type="line"/>
      <point x="474" y="528" type="line"/>
      <point x="53" y="528" type="line"/>
    </contour>
    <contour>
      <point x="232" y="-204" type="line"/>
      <point x="295" y="-204" type="line"/>
      <point x="295" y="22" type="line"/>
      <point x="232" y="22" type="line"/>
    </contour>
    <contour>
      <point x="53" y="-2" type="line"/>
      <point x="474" y="-2" type="line"/>
      <point x="474" y="54" type="line"/>
      <point x="53" y="54" type="line"/>
    </contour>
    <contour>
      <point x="233" y="137" type="line"/>
      <point x="294" y="137" type="line"/>
      <point x="294" y="389" type="line"/>
      <point x="233" y="389" type="line"/>
    </contour>
    <contour>
      <point x="232" y="504" type="line"/>
      <point x="295" y="504" type="line"/>
      <point x="295" y="730" type="line"/>
      <point x="232" y="730" type="line"/>
    </contour>
  </outline>
</glyph>
<glyph name="bullet" format="2">
  <advance width="431"/>
  <unicode hex="2022"/>
  <outline>
    <contour>
      <point x="103" y="169" type="line"/>
      <point x="329" y="169" type="line"/>
      <point x="329" y="406" type="line"/>
      <point x="103" y="406" type="line"/>
    </contour>
  </outline>
</glyph>
<glyph name="guilsinglleft" format="2">
  <advance width="304"/>
  <unicode hex="2039"/>
  <outline>
    <contour>
      <point x="177" y="39" type="line"/>
      <point x="247" y="39" type="line"/>
      <point x="114" y="252" type="line"/>
      <point x="114" y="269" type="line"/>
      <point x="247" y="483" type="line"/>
      <point x="180" y="483" type="line"/>
      <point x="50" y="277" type="line"/>
      <point x="50" y="240" type="line"/>
    </contour>
  </outline>
</glyph>
<glyph name="trademark" format="2">
  <advance width="838"/>
  <unicode hex="2122"/>
  <outline>
    <contour>
      <point x="380" y="340" type="line"/>
      <point x="426" y="340" type="line"/>
      <point x="426" y="682" type="line"/>
      <point x="416" y="681" type="line"/>
      <point x="541" y="410" type="line"/>
      <point x="608" y="410" type="line"/>
      <point x="733" y="681" type="line"/>
      <point x="722" y="682" type="line"/>
      <point x="722" y="340" type="line"/>
      <point x="771" y="340" type="line"/>
      <point x="771" y="730" type="line"/>
      <point x="708" y="730" type="line"/>
      <point x="580" y="450" type="line"/>
      <point x="571" y="450" type="line"/>
      <point x="443" y="730" type="line"/>
      <point x="380" y="730" type="line"/>
    </contour>
    <contour>
      <point x="151" y="340" type="line"/>
      <point x="201" y="340" type="line"/>
      <point x="201" y="701" type="line"/>
      <point x="151" y="701" type="line"/>
    </contour>
    <contour>
      <point x="29" y="687" type="line"/>
      <point x="324" y="687" type="line"/>
      <point x="324" y="730" type="line"/>
      <point x="29" y="730" type="line"/>
    </contour>
  </outline>
</glyph>
<glyph name="greaterequal" format="2">
  <advance width="586"/>
  <unicode hex="2265"/>
  <outline>
    <contour>
      <point x="78" y="44" type="line"/>
      <point x="508" y="44" type="line"/>
      <point x="508" y="101" type="line"/>
      <point x="78" y="101" type="line"/>
    </contour>
    <contour>
      <point x="79" y="183" type="line"/>
      <point x="507" y="314" type="line"/>
      <point x="507" y="369" type="line"/>
      <point x="79" y="241" type="line"/>
    </contour>
    <contour>
      <point x="507" y="355" type="line"/>
      <point x="507" y="408" type="line"/>
      <point x="79" y="539" type="line"/>
      <point x="79" y="482" type="line"/>
    </contour>
    <contour>
      <point x="456" y="331" type="line"/>
      <point x="483" y="331" type="line"/>
      <point x="483" y="392" type="line"/>
      <point x="456" y="392" type="line"/>
    </contour>
  </outline>
</glyph>
<glyph name="fi" format="2">
  <advance width="652"/>
  <unicode hex="FB01"/>
  <outline>
    <contour>
      <point x="113" y="0" type="line"/>
      <point x="181" y="0" type="line"/>
      <point x="181" y="592" type="line" smooth="yes"/>
      <point x="181" y="647"/>
      <point x="212" y="679"/>
      <point x="269" y="679" type="curve" smooth="yes"/>
      <point x="343" y="679" type="line"/>
      <point x="343" y="738" type="line"/>
      <point x="282" y="738" type="line" smooth="yes"/>
      <point x="170" y="738"/>
      <point x="113" y="688"/>
      <point x="113" y="578" type="curve" smooth="yes"/>
    </contour>
    <contour>
      <point x="35" y="473" type="line"/>
      <point x="342" y="473" type="line"/>
      <point x="342" y="528" type="line"/>
      <point x="35" y="528" type="line"/>
    </contour>
    <contour>
      <point x="482" y="0" type="line"/>
      <point x="552" y="0" type="line"/>
      <point x="552" y="528" type="line"/>
      <point x="482" y="528" type="line"/>
    </contour>
    <contour>
      <point x="399" y="471" type="line"/>
      <point x="552" y="471" type="line"/>
      <point x="552" y="528" type="line"/>
      <point x="399" y="528" type="line"/>
    </contour>
    <contour>
      <point x="495" y="629" type="curve" smooth="yes"/>
      <point x="530" y="629"/>
      <point x="546" y="649"/>
      <point x="546" y="678" type="curve" smooth="yes"/>
      <point x="546" y="706"/>
      <point x="530" y="727"/>
      <point x="495" y="727" type="curve" smooth="yes"/>
      <point x="461" y="727"/>
      <point x="444" y="706"/>
      <point x="444" y="678" type="curve" smooth="yes"/>
      <point x="444" y="649"/>
      <point x="461" y="629"/>
    </contour>
  </outline>
</glyph>
<glyph name="fl" format="2">
  <advance width="641"/>
  <unicode hex="FB02"/>
  <outline>
    <contour>
      <point x="113" y="0" type="line"/>
      <point x="181" y="0" type="line"/>
      <point x="181" y="584" type="line" smooth="yes"/>
      <point x="181" y="638"/>
      <point x="212" y="670"/>
      <point x="269" y="670" type="curve" smooth="yes"/>
      <point x="337" y="670" type="line"/>
      <point x="337" y="730" type="line"/>
      <point x="282" y="730" type="line" smooth="yes"/>
      <point x="170" y="730"/>
      <point x="113" y="679"/>
      <point x="113" y="570" type="curve" smooth="yes"/>
    </contour>
    <contour>
      <point x="35" y="470" type="line"/>
      <point x="342" y="470" type="line"/>
      <point x="342" y="524" type="line"/>
      <point x="35" y="524" type="line"/>
    </contour>
    <contour>
      <point x="472" y="0" type="line"/>
      <point x="542" y="0" type="line"/>
      <point x="542" y="730" type="line"/>
      <point x="472" y="730" type="line"/>
    </contour>
    <contour>
      <point x="399" y="673" type="line"/>
      <point x="542" y="673" type="line"/>
      <point x="542" y="730" type="line"/>
      <point x="399" y="730" type="line"/>
    </contour>
  </outline>
</glyph>
<glyph name="Q.salt" format="2">
  <advance width="868"/>
  <anchor x="435" y="0" name="bottom"/>
  <anchor x="435" y="365" name="center"/>
  <anchor x="565" y="10" name="ogonek"/>
  <anchor x="435" y="730" name="top"/>
  <outline>
    <contour>
      <point x="691" y="-68" type="line"/>
      <point x="762" y="-68" type="line"/>
      <point x="499" y="292" type="line"/>
      <point x="427" y="292" type="line"/>
    </contour>
    <component base="O"/>
  </outline>
</glyph>
<glyph name="braceleft.case" format="2">
  <advance width="368"/>
  <outline>
    <contour>
      <point x="297" y="-118" type="curve" smooth="yes"/>
      <point x="317" y="-118" type="line"/>
      <point x="317" y="-61" type="line"/>
      <point x="297" y="-61" type="line" smooth="yes"/>
      <point x="232" y="-61"/>
      <point x="195" y="-25"/>
      <point x="195" y="57" type="curve" smooth="yes"/>
      <point x="195" y="229" type="line" smooth="yes"/>
      <point x="195" y="296"/>
      <point x="165" y="332"/>
      <point x="111" y="341" type="curve"/>
      <point x="111" y="349" type="line"/>
      <point x="165" y="358"/>
      <point x="195" y="395"/>
      <point x="195" y="461" type="curve" smooth="yes"/>
      <point x="195" y="631" type="line" smooth="yes"/>
      <point x="195" y="713"/>
      <point x="232" y="750"/>
      <point x="297" y="750" type="curve" smooth="yes"/>
      <point x="317" y="750" type="line"/>
      <point x="317" y="806" type="line"/>
      <point x="297" y="806" type="line" smooth="yes"/>
      <point x="196" y="806"/>
      <point x="128" y="747"/>
      <point x="128" y="626" type="curve" smooth="yes"/>
      <point x="128" y="451" type="line" smooth="yes"/>
      <point x="128" y="405"/>
      <point x="99" y="382"/>
      <point x="63" y="382" type="curve"/>
      <point x="63" y="308" type="line"/>
      <point x="99" y="308"/>
      <point x="128" y="286"/>
      <point x="128" y="240" type="curve" smooth="yes"/>
      <point x="128" y="62" type="line" smooth="yes"/>
      <point x="128" y="-59"/>
      <point x="196" y="-118"/>
    </contour>
  </outline>
</glyph>
<glyph name="brevecomb.case" format="2">
  <anchor x="156" y="730" name="_top"/>
  <anchor x="156" y="947" name="top"/>
  <outline>
    <contour>
      <point x="156" y="787" type="curve" smooth="yes"/>
      <point x="263" y="787"/>
      <point x="306" y="857"/>
      <point x="312" y="947" type="curve"/>
      <point x="264" y="947" type="line"/>
      <point x="259" y="884"/>
      <point x="229" y="835"/>
      <point x="156" y="835" type="curve" smooth="yes"/>
      <point x="83" y="835"/>
      <point x="56" y="884"/>
      <point x="52" y="947" type="curve"/>
      <point x="0" y="947" type="line"/>
      <point x="5" y="857"/>
      <point x="49" y="787"/>
    </contour>
  </outline>
</glyph>
<glyph name="cedillacomb.case" format="2">
  <anchor x="70" y="0" name="_bottom"/>
  <anchor x="75" y="-300" name="bottom"/>
  <outline>
    <contour>
      <point x="72" y="-241" type="curve" smooth="yes"/>
      <point x="150" y="-241"/>
      <point x="197" y="-201"/>
      <point x="197" y="-144" type="curve" smooth="yes"/>
      <point x="197" y="-90"/>
      <point x="150" y="-57"/>
      <point x="78" y="-57" type="curve" smooth="yes"/>
      <point x="64" y="-57" type="line"/>
      <point x="94" y="-87" type="line"/>
      <point x="94" y="10" type="line"/>
      <point x="46" y="10" type="line"/>
      <point x="46" y="-104" type="line"/>
      <point x="80" y="-104" type="line" smooth="yes"/>
      <point x="121" y="-104"/>
      <point x="144" y="-121"/>
      <point x="144" y="-145" type="curve" smooth="yes"/>
      <point x="144" y="-174"/>
      <point x="119" y="-190"/>
      <point x="72" y="-190" type="curve" smooth="yes"/>
      <point x="48" y="-190"/>
      <point x="20" y="-186"/>
      <point x="0" y="-180" type="curve"/>
      <point x="0" y="-231" type="line"/>
      <point x="19" y="-237"/>
      <point x="46" y="-241"/>
    </contour>
  </outline>
</glyph>
<glyph name="commaturnedabovecomb.case" format="2">
  <anchor x="61" y="720" name="_top"/>
  <anchor x="61" y="916" name="top"/>
  <outline>
    <contour>
      <point x="65" y="760" type="curve" smooth="yes"/>
      <point x="93" y="760"/>
      <point x="115" y="775"/>
      <point x="115" y="805" type="curve" smooth="yes"/>
      <point x="115" y="836"/>
      <point x="94" y="850"/>
      <point x="68" y="850" type="curve" smooth="yes"/>
      <point x="46" y="850"/>
      <point x="33" y="840"/>
      <point x="26" y="825" type="curve"/>
      <point x="42" y="823" type="line"/>
      <point x="41" y="855" type="line" smooth="yes"/>
      <point x="41" y="901"/>
      <point x="63" y="926"/>
      <point x="110" y="926" type="curve" smooth="yes"/>
      <point x="118" y="926" type="line"/>
      <point x="118" y="963" type="line"/>
      <point x="111" y="963" type="line" smooth="yes"/>
      <point x="41" y="963"/>
      <point x="0" y="926"/>
      <point x="0" y="852" type="curve" smooth="yes"/>
      <point x="0" y="847" type="line" smooth="yes"/>
      <point x="0" y="788"/>
      <point x="26" y="760"/>
    </contour>
  </outline>
</glyph>
<glyph name="dollar.tnum" format="2">
  <advance width="640"/>
  <outline>
    <contour>
      <point x="332" y="1" type="curve" smooth="yes"/>
      <point x="494" y="1"/>
      <point x="586" y="83"/>
      <point x="586" y="201" type="curve" smooth="yes"/>
      <point x="586" y="314"/>
      <point x="503" y="390"/>
      <point x="364" y="403" type="curve" smooth="yes"/>
      <point x="302" y="409" type="line" smooth="yes"/>
      <point x="213" y="418"/>
      <point x="168" y="466"/>
      <point x="168" y="535" type="curve" smooth="yes"/>
      <point x="168" y="609"/>
      <point x="221" y="668"/>
      <point x="328" y="668" type="curve" smooth="yes"/>
      <point x="444" y="668"/>
      <point x="491" y="592"/>
      <point x="491" y="512" type="curve"/>
      <point x="558" y="512" type="line"/>
      <point x="558" y="641"/>
      <point x="475" y="729"/>
      <point x="328" y="729" type="curve" smooth="yes"/>
      <point x="183" y="729"/>
      <point x="100" y="651"/>
      <point x="100" y="535" type="curve" smooth="yes"/>
      <point x="100" y="421"/>
      <point x="174" y="358"/>
      <point x="295" y="346" type="curve" smooth="yes"/>
      <point x="358" y="340" type="line" smooth="yes"/>
      <point x="465" y="330"/>
      <point x="519" y="274"/>
      <point x="519" y="201" type="curve" smooth="yes"/>
      <point x="519" y="123"/>
      <point x="457" y="62"/>
      <point x="332" y="62" type="curve" smooth="yes"/>
      <point x="192" y="62"/>
      <point x="139" y="140"/>
      <point x="139" y="227" type="curve"/>
      <point x="73" y="227" type="line"/>
      <point x="73" y="92"/>
      <point x="161" y="1"/>
    </contour>
    <contour>
      <point x="300" y="-129" type="line"/>
      <point x="363" y="-129" type="line"/>
      <point x="363" y="17" type="line"/>
      <point x="300" y="17" type="line"/>
    </contour>
    <contour>
      <point x="296" y="692" type="line"/>
      <point x="359" y="692" type="line"/>
      <point x="359" y="827" type="line"/>
      <point x="296" y="827" type="line"/>
    </contour>
  </outline>
</glyph>
<glyph name="dotaccentcomb.case" format="2">
  <anchor x="53" y="730" name="_top"/>
  <anchor x="53" y="948" name="top"/>
  <outline>
    <contour>
      <point x="53" y="820" type="curve" smooth="yes"/>
      <point x="87" y="820"/>
      <point x="106" y="840"/>
      <point x="106" y="871" type="curve" smooth="yes"/>
      <point x="106" y="900"/>
      <point x="87" y="921"/>
      <point x="53" y="921" type="curve" smooth="yes"/>
      <point x="19" y="921"/>
      <point x="0" y="900"/>
      <point x="0" y="871" type="curve" smooth="yes"/>
      <point x="0" y="840"/>
      <point x="19" y="820"/>
    </contour>
  </outline>
</glyph>
<glyph name="f.salt" format="2">
  <advance width="367"/>
  <outline>
    <contour>
      <point x="116" y="0" type="line"/>
      <point x="183" y="0" type="line"/>
      <point x="183" y="624" type="line" smooth="yes"/>
      <point x="183" y="662"/>
      <point x="205" y="688"/>
      <point x="245" y="688" type="curve" smooth="yes"/>
      <point x="283" y="688"/>
      <point x="308" y="662"/>
      <point x="308" y="624" type="curve"/>
      <point x="365" y="624" type="line"/>
      <point x="365" y="692"/>
      <point x="322" y="744"/>
      <point x="243" y="744" type="curve" smooth="yes"/>
      <point x="162" y="744"/>
      <point x="116" y="693"/>
      <point x="116" y="622" type="curve" smooth="yes"/>
    </contour>
    <contour>
      <point x="37" y="467" type="line"/>
      <point x="350" y="467" type="line"/>
      <point x="350" y="522" type="line"/>
      <point x="37" y="522" type="line"/>
    </contour>
  </outline>
</glyph>
<glyph name="f_f" format="2">
  <advance width="712"/>
  <outline>
    <contour>
      <point x="113" y="0" type="line"/>
      <point x="181" y="0" type="line"/>
      <point x="181" y="592" type="line" smooth="yes"/>
      <point x="181" y="647"/>
      <point x="212" y="679"/>
      <point x="269" y="679" type="curve" smooth="yes"/>
      <point x="341" y="679" type="line"/>
      <point x="341" y="738" type="line"/>
      <point x="282" y="738" type="line" smooth="yes"/>
      <point x="170" y="738"/>
      <point x="113" y="688"/>
      <point x="113" y="578" type="curve" smooth="yes"/>
    </contour>
    <contour>
      <point x="451" y="0" type="line"/>
      <point x="519" y="0" type="line"/>
      <point x="519" y="586" type="line" smooth="yes"/>
      <point x="519" y="641"/>
      <point x="549" y="673"/>
      <point x="607" y="673" type="curve" smooth="yes"/>
      <point x="688" y="673" type="line"/>
      <point x="688" y="732" type="line"/>
      <point x="620" y="732" type="line" smooth="yes"/>
      <point x="508" y="732"/>
      <point x="451" y="682"/>
      <point x="451" y="572" type="curve" smooth="yes"/>
    </contour>
    <contour>
      <point x="35" y="470" type="line"/>
      <point x="699" y="470" type="line"/>
      <point x="699" y="524" type="line"/>
      <point x="35" y="524" type="line"/>
    </contour>
  </outline>
</glyph>
<glyph name="f_f.salt" format="2">
  <advance width="709"/>
  <outline>
    <contour>
      <point x="116" y="0" type="line"/>
      <point x="183" y="0" type="line"/>
      <point x="183" y="621" type="line" smooth="yes"/>
      <point x="183" y="658"/>
      <point x="203" y="685"/>
      <point x="242" y="685" type="curve" smooth="yes"/>
      <point x="278" y="685"/>
      <point x="301" y="658"/>
      <point x="301" y="621" type="curve"/>
      <point x="358" y="621" type="line"/>
      <point x="358" y="689"/>
      <point x="317" y="741"/>
      <point x="240" y="741" type="curve" smooth="yes"/>
      <point x="161" y="741"/>
      <point x="116" y="689"/>
      <point x="116" y="620" type="curve" smooth="yes"/>
    </contour>
    <contour>
      <point x="458" y="0" type="line"/>
      <point x="526" y="0" type="line"/>
      <point x="526" y="626" type="line" smooth="yes"/>
      <point x="526" y="664"/>
      <point x="547" y="691"/>
      <point x="588" y="691" type="curve" smooth="yes"/>
      <point x="626" y="691"/>
      <point x="651" y="664"/>
      <point x="651" y="626" type="curve"/>
      <point x="708" y="626" type="line"/>
      <point x="708" y="695"/>
      <point x="666" y="747"/>
      <point x="587" y="747" type="curve" smooth="yes"/>
      <point x="505" y="747"/>
      <point x="458" y="695"/>
      <point x="458" y="625" type="curve" smooth="yes"/>
    </contour>
    <contour>
      <point x="37" y="467" type="line"/>
      <point x="693" y="467" type="line"/>
      <point x="693" y="522" type="line"/>
      <point x="37" y="522" type="line"/>
    </contour>
  </outline>
</glyph>
<glyph name="f_f_l" format="2">
  <advance width="979"/>
  <outline>
    <contour>
      <point x="113" y="0" type="line"/>
      <point x="181" y="0" type="line"/>
      <point x="181" y="592" type="line" smooth="yes"/>
      <point x="181" y="647"/>
      <point x="212" y="679"/>
      <point x="269" y="679" type="curve" smooth="yes"/>
      <point x="341" y="679" type="line"/>
      <point x="341" y="738" type="line"/>
      <point x="282" y="738" type="line" smooth="yes"/>
      <point x="170" y="738"/>
      <point x="113" y="688"/>
      <point x="113" y="578" type="curve" smooth="yes"/>
    </contour>
    <contour>
      <point x="451" y="0" type="line"/>
      <point x="519" y="0" type="line"/>
      <point x="519" y="584" type="line" smooth="yes"/>
      <point x="519" y="638"/>
      <point x="549" y="670"/>
      <point x="607" y="670" type="curve" smooth="yes"/>
      <point x="675" y="670" type="line"/>
      <point x="675" y="730" type="line"/>
      <point x="620" y="730" type="line" smooth="yes"/>
      <point x="508" y="730"/>
      <point x="451" y="679"/>
      <point x="451" y="570" type="curve" smooth="yes"/>
    </contour>
    <contour>
      <point x="810" y="0" type="line"/>
      <point x="880" y="0" type="line"/>
      <point x="880" y="730" type="line"/>
      <point x="810" y="730" type="line"/>
    </contour>
    <contour>
      <point x="35" y="470" type="line"/>
      <point x="680" y="470" type="line"/>
      <point x="680" y="524" type="line"/>
      <point x="35" y="524" type="line"/>
    </contour>
    <contour>
      <point x="737" y="673" type="line"/>
      <point x="880" y="673" type="line"/>
      <point x="880" y="730" type="line"/>
      <point x="737" y="730" type="line"/>
    </contour>
  </outline>
</glyph>
<glyph name="f_j" format="2">
  <advance width="657"/>
  <outline>
    <contour>
      <point x="113" y="0" type="line"/>
      <point x="181" y="0" type="line"/>
      <point x="181" y="592" type="line" smooth="yes"/>
      <point x="181" y="647"/>
      <point x="212" y="679"/>
      <point x="269" y="679" type="curve" smooth="yes"/>
      <point x="337" y="679" type="line"/>
      <point x="337" y="738" type="line"/>
      <point x="282" y="738" type="line" smooth="yes"/>
      <point x="170" y="738"/>
      <point x="113" y="688"/>
      <point x="113" y="578" type="curve" smooth="yes"/>
    </contour>
    <contour>
      <point x="347" y="-201" type="line"/>
      <point x="396" y="-201" type="line" smooth="yes"/>
      <point x="512" y="-201"/>
      <point x="557" y="-157"/>
      <point x="557" y="-35" type="curve" smooth="yes"/>
      <point x="557" y="528" type="line"/>
      <point x="490" y="528" type="line"/>
      <point x="490" y="-49" type="line" smooth="yes"/>
      <point x="490" y="-107"/>
      <point x="461" y="-138"/>
      <point x="409" y="-138" type="curve" smooth="yes"/>
      <point x="347" y="-138" type="line"/>
    </contour>
    <contour>
      <point x="35" y="474" type="line"/>
      <point x="344" y="474" type="line"/>
      <point x="344" y="528" type="line"/>
      <point x="35" y="528" type="line"/>
    </contour>
    <contour>
      <point x="406" y="471" type="line"/>
      <point x="557" y="471" type="line"/>
      <point x="557" y="528" type="line"/>
      <point x="406" y="528" type="line"/>
    </contour>
    <contour>
      <point x="501" y="638" type="curve" smooth="yes"/>
      <point x="535" y="638"/>
      <point x="552" y="658"/>
      <point x="552" y="687" type="curve" smooth="yes"/>
      <point x="552" y="715"/>
      <point x="535" y="736"/>
      <point x="501" y="736" type="curve" smooth="yes"/>
      <point x="467" y="736"/>
      <point x="450" y="715"/>
      <point x="450" y="687" type="curve" smooth="yes"/>
      <point x="450" y="658"/>
      <point x="467" y="638"/>
    </contour>
  </outline>
</glyph>
<glyph name="fi.salt" format="2">
  <advance width="644"/>
  <outline>
    <contour>
      <point x="116" y="0" type="line"/>
      <point x="183" y="0" type="line"/>
      <point x="183" y="625" type="line" smooth="yes"/>
      <point x="183" y="662"/>
      <point x="204" y="688"/>
      <point x="244" y="688" type="curve" smooth="yes"/>
      <point x="282" y="688"/>
      <point x="306" y="662"/>
      <point x="306" y="625" type="curve"/>
      <point x="364" y="625" type="line"/>
      <point x="364" y="693"/>
      <point x="322" y="744"/>
      <point x="243" y="744" type="curve" smooth="yes"/>
      <point x="162" y="744"/>
      <point x="116" y="693"/>
      <point x="116" y="623" type="curve" smooth="yes"/>
    </contour>
    <contour>
      <point x="37" y="474" type="line"/>
      <point x="333" y="474" type="line"/>
      <point x="333" y="528" type="line"/>
      <point x="37" y="528" type="line"/>
    </contour>
    <contour>
      <point x="474" y="0" type="line"/>
      <point x="544" y="0" type="line"/>
      <point x="544" y="528" type="line"/>
      <point x="474" y="528" type="line"/>
    </contour>
    <contour>
      <point x="391" y="471" type="line"/>
      <point x="544" y="471" type="line"/>
      <point x="544" y="528" type="line"/>
      <point x="391" y="528" type="line"/>
    </contour>
    <contour>
      <point x="489" y="629" type="curve" smooth="yes"/>
      <point x="523" y="629"/>
      <point x="540" y="649"/>
      <point x="540" y="678" type="curve" smooth="yes"/>
      <point x="540" y="706"/>
      <point x="523" y="727"/>
      <point x="489" y="727" type="curve" smooth="yes"/>
      <point x="455" y="727"/>
      <point x="438" y="706"/>
      <point x="438" y="678" type="curve" smooth="yes"/>
      <point x="438" y="649"/>
      <point x="455" y="629"/>
    </contour>
  </outline>
</glyph>
<glyph name="five.tnum" format="2">
  <advance width="640"/>
  <outline>
    <contour>
      <point x="328" y="-17" type="curve" smooth="yes"/>
      <point x="492" y="-17"/>
      <point x="581" y="97"/>
      <point x="581" y="215" type="curve" smooth="yes"/>
      <point x="581" y="229" type="line" smooth="yes"/>
      <point x="581" y="347"/>
      <point x="494" y="461"/>
      <point x="331" y="461" type="curve" smooth="yes"/>
      <point x="257" y="461"/>
      <point x="200" y="436"/>
      <point x="159" y="394" type="curve"/>
      <point x="182" y="389" type="line"/>
      <point x="212" y="693" type="line"/>
      <point x="192" y="669" type="line"/>
      <point x="516" y="669" type="line"/>
      <point x="516" y="730" type="line"/>
      <point x="154" y="730" type="line"/>
      <point x="116" y="347" type="line"/>
      <point x="181" y="347" type="line"/>
      <point x="217" y="382"/>
      <point x="275" y="401"/>
      <point x="328" y="401" type="curve" smooth="yes"/>
      <point x="445" y="401"/>
      <point x="513" y="322"/>
      <point x="513" y="222" type="curve" smooth="yes"/>
      <point x="513" y="122"/>
      <point x="445" y="45"/>
      <point x="328" y="45" type="curve" smooth="yes"/>
      <point x="212" y="45"/>
      <point x="143" y="121"/>
      <point x="143" y="222" type="curve"/>
      <point x="76" y="222" type="line"/>
      <point x="76" y="97"/>
      <point x="164" y="-17"/>
    </contour>
  </outline>
</glyph>
<glyph name="four.tnum" format="2">
  <advance width="640"/>
  <outline>
    <contour>
      <point x="57" y="184" type="line"/>
      <point x="605" y="184" type="line"/>
      <point x="605" y="240" type="line"/>
      <point x="129" y="240" type="line"/>
      <point x="120" y="255" type="line"/>
      <point x="414" y="704" type="line"/>
      <point x="365" y="743" type="line"/>
      <point x="57" y="273" type="line"/>
    </contour>
    <contour>
      <point x="440" y="0" type="line"/>
      <point x="506" y="0" type="line"/>
      <point x="506" y="513" type="line"/>
      <point x="440" y="513" type="line"/>
    </contour>
  </outline>
</glyph>
<glyph name="gravecomb.case" format="2">
  <anchor x="164" y="730" name="_top"/>
  <anchor x="46" y="947" name="top"/>
  <outline>
    <contour>
      <point x="134" y="794" type="line"/>
      <point x="202" y="794" type="line"/>
      <point x="83" y="947" type="line"/>
      <point x="0" y="947" type="line"/>
    </contour>
  </outline>
</glyph>
<glyph name="lslash.salt" format="2">
  <advance width="296"/>
  <anchor x="168" y="0" name="bottom"/>
  <anchor x="142" y="480" name="center"/>
  <anchor x="119" y="730" name="top"/>
  <anchor x="155" y="533" name="topright"/>
  <outline>
    <contour>
      <point x="20" y="243" type="line"/>
      <point x="104" y="293" type="line"/>
      <point x="104" y="348" type="line"/>
      <point x="20" y="299" type="line"/>
    </contour>
    <contour>
      <point x="146" y="314" type="line"/>
      <point x="234" y="366" type="line"/>
      <point x="234" y="421" type="line"/>
      <point x="146" y="370" type="line"/>
    </contour>
    <component base="l.salt"/>
  </outline>
</glyph>
<glyph name="multiply.tnum" format="2">
  <advance width="640"/>
  <outline>
    <contour>
      <point x="136" y="123" type="line"/>
      <point x="97" y="163" type="line"/>
      <point x="504" y="567" type="line"/>
      <point x="543" y="528" type="line"/>
    </contour>
    <contour>
      <point x="502" y="123" type="line"/>
      <point x="97" y="526" type="line"/>
      <point x="138" y="567" type="line"/>
      <point x="543" y="165" type="line"/>
    </contour>
  </outline>
</glyph>
<glyph name="riel-khmer.tnum" format="2">
  <advance width="640"/>
  <outline>
    <contour>
      <point x="320" y="-5" type="curve" smooth="yes"/>
      <point x="398" y="-5" type="line"/>
      <point x="398" y="379" type="line"/>
      <point x="336" y="379" type="line"/>
      <point x="336" y="22" type="line"/>
      <point x="366" y="52" type="line"/>
      <point x="316" y="52" type="line" smooth="yes"/>
      <point x="234" y="52"/>
      <point x="185" y="79"/>
      <point x="185" y="137" type="curve" smooth="yes"/>
      <point x="185" y="198"/>
      <point x="240" y="223"/>
      <point x="344" y="223" type="curve"/>
      <point x="344" y="277" type="line"/>
      <point x="210" y="277"/>
      <point x="123" y="229"/>
      <point x="123" y="136" type="curve" smooth="yes"/>
      <point x="123" y="43"/>
      <point x="202" y="-5"/>
    </contour>
    <contour>
      <point x="180" y="363" type="line"/>
      <point x="537" y="363" type="line"/>
      <point x="537" y="413" type="line"/>
      <point x="180" y="413" type="line"/>
    </contour>
    <contour>
      <point x="336" y="397" type="line"/>
      <point x="398" y="397" type="line"/>
      <point x="398" y="436" type="line" smooth="yes"/>
      <point x="398" y="484"/>
      <point x="386" y="512"/>
      <point x="346" y="537" type="curve" smooth="yes"/>
      <point x="309" y="560"/>
      <point x="275" y="577"/>
      <point x="254" y="592" type="curve" smooth="yes"/>
      <point x="236" y="605"/>
      <point x="229" y="622"/>
      <point x="240" y="648" type="curve" smooth="yes"/>
      <point x="251" y="672"/>
      <point x="269" y="679"/>
      <point x="308" y="679" type="curve" smooth="yes"/>
      <point x="366" y="679"/>
      <point x="408" y="674"/>
      <point x="459" y="667" type="curve"/>
      <point x="459" y="726" type="line"/>
      <point x="409" y="733"/>
      <point x="361" y="736"/>
      <point x="316" y="736" type="curve" smooth="yes"/>
      <point x="247" y="736"/>
      <point x="205" y="723"/>
      <point x="183" y="676" type="curve" smooth="yes"/>
      <point x="161" y="630"/>
      <point x="167" y="581"/>
      <point x="216" y="548" type="curve" smooth="yes"/>
      <point x="236" y="533"/>
      <point x="275" y="513"/>
      <point x="302" y="495" type="curve" smooth="yes"/>
      <point x="329" y="477"/>
      <point x="336" y="461"/>
      <point x="336" y="436" type="curve" smooth="yes"/>
    </contour>
  </outline>
</glyph>
<glyph name="seven.salt" format="2">
  <advance width="535"/>
  <outline>
    <contour>
      <point x="199" y="0" type="line"/>
      <point x="267" y="0" type="line"/>
      <point x="267" y="138" type="line" smooth="yes"/>
      <point x="267" y="352"/>
      <point x="335" y="507"/>
      <point x="503" y="630" type="curve"/>
      <point x="503" y="730" type="line"/>
      <point x="22" y="730" type="line"/>
      <point x="22" y="669" type="line"/>
      <point x="433" y="669" type="line"/>
      <point x="437" y="652" type="line"/>
      <point x="281" y="540"/>
      <point x="199" y="366"/>
      <point x="199" y="138" type="curve" smooth="yes"/>
    </contour>
  </outline>
</glyph>
<glyph name="seven.tnum" format="2">
  <advance width="640"/>
  <outline>
    <contour>
      <point x="190" y="0" type="line"/>
      <point x="262" y="0" type="line"/>
      <point x="561" y="643" type="line"/>
      <point x="561" y="730" type="line"/>
      <point x="86" y="730" type="line"/>
      <point x="86" y="669" type="line"/>
      <point x="491" y="669" type="line"/>
      <point x="497" y="659" type="line"/>
    </contour>
    <contour>
      <point x="86" y="541" type="line"/>
      <point x="145" y="541" type="line"/>
      <point x="145" y="730" type="line"/>
      <point x="86" y="730" type="line"/>
    </contour>
  </outline>
</glyph>
<glyph name="seven.tnum.salt" format="2">
  <advance width="640"/>
  <outline>
    <contour>
      <point x="250" y="0" type="line"/>
      <point x="318" y="0" type="line"/>
      <point x="318" y="138" type="line" smooth="yes"/>
      <point x="318" y="353"/>
      <point x="388" y="507"/>
      <point x="558" y="630" type="curve"/>
      <point x="558" y="730" type="line"/>
      <point x="71" y="730" type="line"/>
      <point x="71" y="669" type="line"/>
      <point x="488" y="669" type="line"/>
      <point x="492" y="652" type="line"/>
      <point x="335" y="541"/>
      <point x="250" y="368"/>
      <point x="250" y="138" type="curve" smooth="yes"/>
    </contour>
  </outline>
</glyph>
<glyph name="zero.tnum" format="2">
  <advance width="640"/>
  <outline>
    <contour>
      <point x="320" y="-18" type="curve" smooth="yes"/>
      <point x="489" y="-18"/>
      <point x="572" y="119"/>
      <point x="572" y="343" type="curve" smooth="yes"/>
      <point x="572" y="385" type="line" smooth="yes"/>
      <point x="572" y="618"/>
      <point x="482" y="749"/>
      <point x="320" y="749" type="curve" smooth="yes"/>
      <point x="158" y="749"/>
      <point x="69" y="618"/>
      <point x="69" y="385" type="curve" smooth="yes"/>
      <point x="69" y="343" type="line" smooth="yes"/>
      <point x="69" y="119"/>
      <point x="151" y="-18"/>
    </contour>
    <contour>
      <point x="320" y="45" type="curve" smooth="yes"/>
      <point x="201" y="45"/>
      <point x="140" y="140"/>
      <point x="140" y="365" type="curve" smooth="yes"/>
      <point x="140" y="596"/>
      <point x="204" y="686"/>
      <point x="320" y="686" type="curve" smooth="yes"/>
      <point x="437" y="686"/>
      <point x="501" y="596"/>
      <point x="501" y="364" type="curve" smooth="yes"/>
      <point x="501" y="140"/>
      <point x="439" y="45"/>
    </contour>
  </outline>
</glyph>
